<svg width="41" height="27" viewBox="0 0 41 27" fill="none" xmlns="http://www.w3.org/2000/svg">
<path d="M6.66077 8C6.66077 6.89543 7.5562 6 8.66077 6H9.66077C10.7653 6 11.6608 6.89543 11.6608 8V19C11.6608 20.1046 10.7653 21 9.66077 21H8.66077C7.5562 21 6.66077 20.1046 6.66077 19V8Z" stroke="#01618A" stroke-width="1.5"/>
<path d="M11.6608 3C11.6608 1.89543 12.5562 1 13.6608 1H14.6608C15.7653 1 16.6608 1.89543 16.6608 3V24C16.6608 25.1046 15.7653 26 14.6608 26H13.6608C12.5562 26 11.6608 25.1046 11.6608 24V3Z" stroke="#01618A" stroke-width="1.5"/>
<path d="M16.6608 12C16.6608 11.4477 17.1085 11 17.6608 11H23.6608C24.2131 11 24.6608 11.4477 24.6608 12V15C24.6608 15.5523 24.2131 16 23.6608 16H17.6608C17.1085 16 16.6608 15.5523 16.6608 15V12Z" stroke="#01618A" stroke-width="1.5"/>
<path d="M34.6608 8C34.6608 6.89543 33.7653 6 32.6608 6H31.6608C30.5562 6 29.6608 6.89543 29.6608 8V19C29.6608 20.1046 30.5562 21 31.6608 21H32.6608C33.7653 21 34.6608 20.1046 34.6608 19V8Z" stroke="#01618A" stroke-width="1.5"/>
<path d="M39.6608 12C39.6608 11.4477 39.2131 11 38.6608 11H35.6608C35.1085 11 34.6608 11.4477 34.6608 12V15C34.6608 15.5523 35.1085 16 35.6608 16H38.6608C39.2131 16 39.6608 15.5523 39.6608 15V12Z" stroke="#01618A" stroke-width="1.5"/>
<path d="M6.66077 12C6.66077 11.4477 6.21305 11 5.66077 11H2.66077C2.10848 11 1.66077 11.4477 1.66077 12V15C1.66077 15.5523 2.10848 16 2.66077 16H5.66077C6.21305 16 6.66077 15.5523 6.66077 15V12Z" stroke="#01618A" stroke-width="1.5"/>
<path d="M29.6608 3C29.6608 1.89543 28.7653 1 27.6608 1H26.6608C25.5562 1 24.6608 1.89543 24.6608 3V24C24.6608 25.1046 25.5562 26 26.6608 26H27.6608C28.7653 26 29.6608 25.1046 29.6608 24V3Z" stroke="#01618A" stroke-width="1.5"/>
</svg>
