<svg width="16" height="16" viewBox="0 0 16 16" fill="none" xmlns="http://www.w3.org/2000/svg">
<path d="M8.44607 7.13616C4.76055 7.13616 1.87167 5.67885 1.87167 3.81808C1.87167 1.95732 4.76055 0.5 8.44607 0.5C12.1316 0.5 15.0189 1.95782 15.0189 3.81808C15.0189 5.67835 12.1321 7.13616 8.44607 7.13616ZM8.44607 1.49987C5.17419 1.49987 2.89301 2.72172 2.89301 3.81808C2.89301 4.91444 5.17266 6.13629 8.44454 6.13629C11.7164 6.13629 13.9976 4.91494 13.9976 3.81808C13.9976 2.72122 11.7174 1.49987 8.44607 1.49987Z" fill="#FF7A00"/>
<path d="M8.44709 9.11391C4.76208 9.11391 1.87473 7.6571 1.87167 5.79633V3.81808H2.89301V5.79483C2.89301 6.89169 5.17368 8.11454 8.44607 8.11454C11.6577 8.11454 13.9144 6.93719 13.9966 5.85582V3.81808H15.0179V5.79483C15.0215 7.6561 12.1362 9.11391 8.44709 9.11391Z" fill="#FF7A00"/>
<path d="M8.92508 13.5209C5.44842 13.5209 2.63053 12.2105 2.37162 10.4712L3.38224 10.3268C3.54055 11.3856 5.80589 12.519 8.9256 12.519C12.198 12.519 14.4787 11.2966 14.4787 10.1993C14.4787 9.64235 13.9133 9.07192 12.9272 8.63347L13.3501 7.72309C14.7365 8.33951 15.5 9.2194 15.5 10.1993C15.4995 12.063 12.6111 13.5209 8.92508 13.5209Z" fill="#FF7A00"/>
<path d="M8.92508 15.4981C5.23854 15.4981 2.35068 14.0398 2.35068 12.1785V10.3918H3.37203V12.1785C3.37203 13.2759 5.65065 14.4982 8.92508 14.4982C10.3228 14.5273 11.7106 14.2614 12.9941 13.7188C13.9379 13.2839 14.4781 12.723 14.4781 12.1785V10.2018H15.4995V12.1785C15.4995 13.1394 14.7651 14.0078 13.4302 14.6227C12.0103 15.2282 10.4736 15.5268 8.92508 15.4981ZM11.8599 8.12254V7.6226L11.5566 7.79908L11.3441 7.83657C10.009 8.44672 8.54795 8.74665 7.07492 8.71296C3.80252 8.71296 1.52186 7.49062 1.52186 6.39326C1.52186 5.92781 1.91865 5.44688 2.63921 5.03893L2.12854 4.17354C1.07859 4.76746 0.501021 5.55586 0.501021 6.39326C0.501021 8.25452 3.38888 9.71284 7.07543 9.71284C8.83203 9.76561 10.572 9.36601 12.1214 8.55398L12.366 8.408V8.12704L11.8599 8.12254Z" fill="#FF7A00"/>
<path d="M7.0744 11.6901C3.38786 11.6901 0.5 10.2318 0.5 8.37051V6.39376H1.52135V8.37101C1.52135 9.46787 3.80201 10.6907 7.0744 10.6907C10.3468 10.6907 12.627 9.46837 12.627 8.37101V7.58661H13.6483V8.37051C13.6488 10.2318 10.761 11.6901 7.0744 11.6901Z" fill="#FF7A00"/>
</svg>
