<svg width="30" height="27" viewBox="0 0 30 27" fill="none" xmlns="http://www.w3.org/2000/svg">
<path d="M25.1984 9.75993C24.6722 9.25219 24.375 8.55237 24.375 7.82114V4.23661C24.375 2.94219 23.3257 1.89286 22.0312 1.89286H20.6997C20.1407 1.89286 19.6875 2.34601 19.6875 2.90501V2.90501C19.6875 3.77766 18.6571 4.24129 18.004 3.66247L16.3399 2.18755C15.5759 1.51042 14.426 1.51253 13.6645 2.19244L2.02485 12.585C1.31544 13.2184 1.76348 14.3929 2.71451 14.3929V14.3929C3.28639 14.3929 3.75 14.8565 3.75 15.4283V23C3.75 24.6569 5.09315 26 6.75 26H9.1875C10.8444 26 12.1875 24.6569 12.1875 23V19.8839C12.1875 18.3306 13.4467 17.0714 15 17.0714V17.0714C16.5533 17.0714 17.8125 18.3306 17.8125 19.8839V23C17.8125 24.6569 19.1556 26 20.8125 26H23.25C24.9069 26 26.25 24.6569 26.25 23V15.4715C26.25 14.8758 26.7329 14.3929 27.3286 14.3929V14.3929C28.2989 14.3929 28.7759 13.2117 28.0776 12.538L25.1984 9.75993Z" stroke="#01618A" stroke-width="2"/>
</svg>
