<svg width="37" height="27" viewBox="0 0 37 27" fill="none" xmlns="http://www.w3.org/2000/svg">
<path d="M22.3287 25.4716C21.6496 25.4712 20.973 25.3893 20.3134 25.2274C17.8443 24.6188 16.8448 23.4691 16.4458 22.7252C14.8626 23.0478 10.6224 23.5367 8.86068 20.012C8.42001 19.2627 8.24856 18.3853 8.37475 17.5252C8.50094 16.6651 8.91719 15.8739 9.55454 15.2828C10.5123 14.3722 11.7898 13.875 13.1111 13.8984C13.5772 12.9323 14.3813 12.1705 15.3712 11.7574C16.6061 11.2961 18.0222 11.5328 19.5803 12.46C19.7323 12.5528 19.8415 12.7016 19.8843 12.8744C19.9272 13.0471 19.9002 13.2298 19.8092 13.3828C19.7183 13.5358 19.5707 13.6467 19.3984 13.6916C19.2262 13.7365 19.0432 13.7117 18.8892 13.6225C17.7044 12.9172 16.6825 12.7136 15.8534 13.0213C15.4575 13.2081 15.1024 13.471 14.8082 13.7951C14.5141 14.1192 14.2867 14.4981 14.139 14.9102C14.1075 15.0048 14.0553 15.0913 13.9864 15.1635C13.9174 15.2356 13.8333 15.2916 13.7402 15.3274C13.647 15.3632 13.5471 15.378 13.4476 15.3706C13.348 15.3633 13.2514 15.334 13.1645 15.2848C12.869 15.1184 11.4738 15.3234 10.4865 16.2634C10.0557 16.653 9.77746 17.1829 9.70128 17.7587C9.6251 18.3344 9.75597 18.9185 10.0705 19.4067C11.7044 22.6765 16.6183 21.2962 16.6683 21.2827C16.7613 21.2557 16.859 21.249 16.9548 21.263C17.0507 21.277 17.1424 21.3114 17.2237 21.3639C17.3051 21.4164 17.3742 21.4858 17.4265 21.5674C17.4787 21.6489 17.5128 21.7407 17.5265 21.8366C17.5353 21.8758 17.8349 23.2223 20.6374 23.9121C22.8102 24.4477 24.854 23.8681 25.5742 22.9991C25.7427 22.7991 25.8455 22.552 25.8686 22.2915C25.8918 22.031 25.834 21.7696 25.7034 21.5431C25.6284 21.3801 25.6212 21.1941 25.6834 21.0258C25.7456 20.8576 25.8721 20.721 26.0351 20.646C26.198 20.571 26.3841 20.5639 26.5523 20.6261C26.7206 20.6883 26.8572 20.8148 26.9322 20.9777C27.1707 21.4355 27.268 21.9538 27.2119 22.467C27.1558 22.9802 26.9488 23.4652 26.617 23.8607C25.7676 24.8866 24.1243 25.4716 22.3287 25.4716Z" fill="#01618A"/>
<path d="M7.97611 19.2498C6.46308 19.2783 4.98053 18.8227 3.74465 17.9494C2.2095 16.8044 1.29923 14.9846 1.03954 12.5391C0.60875 8.49094 3.79537 6.65959 5.86883 6.15305C6.19074 5.1028 7.27008 2.55729 10.2491 2.13259C12.0333 1.85932 13.858 2.06277 15.5382 2.7223C16.3849 1.69165 18.2332 0.50614 21.102 1.21488C23.9139 1.90806 25.0102 3.04759 25.4301 3.76106C26.9991 3.57779 31.4294 3.52234 33.1025 8.26236C34.2076 11.3928 32.6683 12.6365 31.9528 13.0267C30.1147 14.031 27.3048 13.304 26.2944 12.0035C24.5429 9.75288 25.727 8.18797 25.7784 8.12237C25.8323 8.05011 25.9001 7.98935 25.9779 7.94367C26.0556 7.89799 26.1417 7.86831 26.231 7.85638C26.3204 7.84445 26.4112 7.85051 26.4982 7.8742C26.5852 7.89789 26.6666 7.93874 26.7376 7.99433C26.8085 8.04993 26.8677 8.11916 26.9115 8.19794C26.9553 8.27673 26.983 8.36348 26.9928 8.4531C27.0026 8.54272 26.9944 8.6334 26.9686 8.7198C26.9429 8.8062 26.9001 8.88658 26.8429 8.95622C26.83 8.97651 26.2843 9.78872 27.3616 11.1731C28.0054 12.0015 30.112 12.4904 31.3043 11.8399C32.4296 11.2251 32.2078 9.79954 31.8243 8.71276C30.1918 4.0877 25.3733 5.12105 25.1705 5.16637C25.0814 5.18676 24.9892 5.18891 24.8993 5.17268C24.8094 5.15645 24.7237 5.12218 24.6475 5.07194C24.5712 5.0217 24.5059 4.95652 24.4555 4.88035C24.4051 4.80417 24.3706 4.71858 24.3542 4.62872C24.3542 4.62872 23.9559 3.31269 20.7699 2.52753C17.584 1.74237 16.4066 3.81246 16.3579 3.89835C16.3146 3.97728 16.2561 4.04685 16.1858 4.10302C16.1155 4.15919 16.0347 4.20084 15.9481 4.22556C15.8616 4.25028 15.771 4.25758 15.6816 4.24703C15.5922 4.23649 15.5058 4.20831 15.4273 4.16412C13.8689 3.43794 12.1283 3.19645 10.431 3.47094C7.70357 3.86047 7.0956 6.73871 7.07058 6.86044C7.04405 6.99523 6.9771 7.11875 6.87864 7.21455C6.78018 7.31035 6.65488 7.3739 6.51941 7.39673C6.33343 7.42919 1.93358 8.24004 2.37586 12.3964C2.60106 14.4483 3.32874 15.9496 4.54401 16.8605C5.82422 17.7123 7.37479 18.059 8.89585 17.8337C9.07234 17.8012 9.2545 17.8402 9.40225 17.9421C9.55 18.0439 9.65125 18.2003 9.68371 18.3768C9.71618 18.5533 9.6772 18.7354 9.57536 18.8832C9.47351 19.0309 9.31715 19.1322 9.14066 19.1646C8.75553 19.2255 8.36599 19.254 7.97611 19.2498Z" fill="#01618A"/>
<path d="M32.7279 21.7818H32.7137C32.5344 21.7779 32.364 21.703 32.24 21.5735C32.116 21.444 32.0484 21.2706 32.0523 21.0913C32.0524 21.002 32.0705 20.9137 32.1056 20.8316C32.1407 20.7495 32.1921 20.6753 32.2566 20.6135C32.321 20.5517 32.3974 20.5036 32.4809 20.4721C32.5644 20.4405 32.6535 20.4262 32.7427 20.4299C32.8036 20.4299 34.545 20.3576 35.2166 17.0431C35.9151 13.5941 32.4384 11.639 32.4026 11.6201C32.3247 11.5773 32.256 11.5196 32.2004 11.4503C32.1448 11.381 32.1034 11.3014 32.0786 11.2161C32.0537 11.1308 32.0459 11.0414 32.0556 10.9531C32.0653 10.8648 32.0923 10.7793 32.1351 10.7014C32.1779 10.6235 32.2355 10.5548 32.3049 10.4992C32.3742 10.4436 32.4538 10.4022 32.5391 10.3774C32.6244 10.3525 32.7137 10.3447 32.8021 10.3544C32.8904 10.3641 32.9759 10.3911 33.0538 10.4339C34.5727 11.2677 37.2569 13.7774 36.5421 17.3116C35.6582 21.6784 32.9754 21.7818 32.7279 21.7818Z" fill="#01618A"/>
<path d="M28.8054 25.9998C27.3541 25.9279 25.9377 25.5294 24.6619 24.8338C24.5055 24.746 24.3904 24.5995 24.342 24.4268C24.2935 24.2541 24.3157 24.0692 24.4036 23.9128C24.4914 23.7564 24.6379 23.6413 24.8106 23.5928C24.9833 23.5444 25.1682 23.5665 25.3246 23.6544C25.351 23.6693 28.0135 25.1422 29.8686 24.4822C30.2082 24.3558 30.5151 24.1547 30.7667 23.8938C31.0182 23.6329 31.2079 23.3188 31.3219 22.9748C31.6282 22.3263 31.7699 21.6124 31.7345 20.8962C31.6991 20.1799 31.4877 19.4835 31.119 18.8684C30.6574 18.2185 30.0486 17.687 29.3423 17.3174C28.636 16.9478 27.8523 16.7504 27.0552 16.7415C26.8759 16.7325 26.7074 16.6527 26.5869 16.5195C26.4665 16.3864 26.4038 16.2108 26.4128 16.0314C26.4217 15.8521 26.5016 15.6836 26.6348 15.5631C26.7679 15.4426 26.9435 15.38 27.1229 15.389C28.1347 15.4086 29.1276 15.6679 30.0199 16.1454C30.9122 16.6229 31.6787 17.3051 32.2565 18.136C32.7395 18.9326 33.0211 19.835 33.0768 20.765C33.1326 21.695 32.9608 22.6245 32.5764 23.4732C32.3922 23.9978 32.0937 24.4748 31.7025 24.8698C31.3112 25.2648 30.837 25.5678 30.3142 25.757C29.8287 25.923 29.3185 26.0051 28.8054 25.9998ZM17.7808 9.16924C17.6175 9.16956 17.4595 9.11076 17.3362 9.00371C17.2128 8.89666 17.1324 8.74858 17.1097 8.58684C17.0871 8.4251 17.1237 8.26061 17.2128 8.12377C17.302 7.98693 17.4377 7.88698 17.5948 7.84239C17.8156 7.79914 18.0222 7.70182 18.1962 7.55913C18.3702 7.41645 18.506 7.23284 18.5916 7.02477C18.6676 6.72123 18.6731 6.40431 18.6075 6.09834C18.542 5.79237 18.4072 5.50548 18.2136 5.25969C18.1115 5.11225 18.0721 4.93028 18.1041 4.7538C18.1361 4.57732 18.2369 4.42079 18.3844 4.31865C18.5318 4.2165 18.7138 4.17711 18.8902 4.20913C19.0667 4.24115 19.2232 4.34197 19.3254 4.48941C19.6445 4.91017 19.8598 5.40029 19.9538 5.91991C20.0478 6.43954 20.0178 6.97402 19.8664 7.4799C19.7091 7.89043 19.454 8.25642 19.1234 8.54619C18.7927 8.83595 18.3964 9.04076 17.9688 9.14287C17.9077 9.16069 17.8444 9.16958 17.7808 9.16924Z" fill="#01618A"/>
<path d="M22.7494 12.8827C22.5737 12.8828 22.4049 12.8145 22.2787 12.6923C22.1525 12.5701 22.0787 12.4036 22.0731 12.2281C21.9379 8.08383 19.322 7.85119 19.2104 7.84308C19.0319 7.83143 18.8653 7.74952 18.747 7.6153C18.6288 7.48107 18.5685 7.30546 18.5795 7.1269C18.5892 6.94913 18.6691 6.78251 18.8016 6.66358C18.9341 6.54466 19.1084 6.48315 19.2862 6.49255C19.3254 6.49255 23.2512 6.75833 23.4243 12.1848C23.43 12.3639 23.3643 12.538 23.2416 12.6687C23.119 12.7995 22.9495 12.8762 22.7704 12.882L22.7494 12.8827ZM18.1487 20.3319C18.0258 20.3317 17.9053 20.2981 17.8001 20.2347C17.695 20.1712 17.609 20.0803 17.5516 19.9717C17.4942 19.8632 17.4674 19.741 17.4742 19.6183C17.481 19.4956 17.521 19.3772 17.5901 19.2755C17.7863 19.0446 17.9302 18.7739 18.0119 18.482C18.0936 18.1902 18.1112 17.8841 18.0635 17.5848C17.9605 17.3788 17.8179 17.1951 17.6439 17.0442C17.4698 16.8933 17.2677 16.7783 17.049 16.7057C16.8776 16.6528 16.7342 16.5339 16.6503 16.3753C16.5665 16.2166 16.5491 16.0311 16.602 15.8597C16.6549 15.6882 16.7738 15.5448 16.9325 15.4609C17.0911 15.3771 17.2766 15.3597 17.448 15.4126C17.8683 15.548 18.2547 15.7718 18.5813 16.0689C18.9079 16.366 19.1672 16.7295 19.3416 17.1351C19.4772 17.633 19.4908 18.1562 19.3812 18.6604C19.2716 19.1646 19.0421 19.635 18.712 20.0316C18.6501 20.1242 18.5663 20.2 18.468 20.2524C18.3697 20.3048 18.26 20.3321 18.1487 20.3319Z" fill="#01618A"/>
<path d="M23.7827 20.3319C23.633 20.3317 23.4876 20.2819 23.3693 20.1903C23.2509 20.0986 23.1664 19.9702 23.1288 19.8253C23.0645 19.4426 22.9151 19.0792 22.6917 18.7619C22.4682 18.4446 22.1764 18.1815 21.8378 17.992C20.6543 17.4313 19.0955 18.1414 19.0799 18.1489C18.9995 18.1866 18.9124 18.208 18.8237 18.2121C18.735 18.2162 18.6463 18.2027 18.5628 18.1725C18.4793 18.1423 18.4025 18.0959 18.3369 18.0361C18.2713 17.9762 18.2182 17.904 18.1805 17.8236C18.1428 17.7431 18.1213 17.6561 18.1172 17.5674C18.1132 17.4786 18.1266 17.39 18.1568 17.3065C18.187 17.2229 18.2334 17.1462 18.2933 17.0806C18.3531 17.015 18.4253 16.9618 18.5057 16.9241C18.5923 16.8829 20.6448 15.9381 22.4072 16.7645C22.93 17.0338 23.3846 17.4188 23.7361 17.8903C24.0877 18.3618 24.3271 18.9072 24.436 19.4852C24.4621 19.5852 24.4648 19.69 24.4441 19.7913C24.4234 19.8926 24.3797 19.9877 24.3164 20.0695C24.2531 20.1513 24.1719 20.2175 24.079 20.2629C23.9862 20.3084 23.8841 20.332 23.7807 20.3319H23.7827ZM5.31632 14.0777C5.22159 14.0777 5.12795 14.0574 5.04175 14.0182C4.87928 13.9452 4.75215 13.8111 4.68795 13.645C4.62376 13.4789 4.62768 13.2941 4.69888 13.1309C4.88107 12.7293 5.14862 12.3722 5.48289 12.0845C5.81715 11.7969 6.2101 11.5855 6.63438 11.4652C7.53991 11.2752 8.4982 11.6397 9.47474 12.5473C9.53997 12.6076 9.59269 12.6801 9.62988 12.7608C9.66707 12.8415 9.688 12.9287 9.69149 13.0174C9.69497 13.1062 9.68094 13.1948 9.65019 13.2781C9.61944 13.3615 9.57258 13.4379 9.51228 13.5032C9.45197 13.5684 9.37941 13.6211 9.29874 13.6583C9.21807 13.6955 9.13086 13.7164 9.04209 13.7199C8.95333 13.7234 8.86474 13.7094 8.7814 13.6786C8.69806 13.6479 8.62159 13.601 8.55636 13.5407C8.35284 13.3044 8.10056 13.1151 7.81688 12.9856C7.53319 12.8561 7.22483 12.7897 6.91301 12.7907C6.69682 12.8636 6.49809 12.9805 6.32932 13.1341C6.16055 13.2876 6.02541 13.4744 5.9324 13.6827C5.87802 13.8004 5.79113 13.9001 5.68199 13.9701C5.57284 14.0401 5.44597 14.0774 5.31632 14.0777ZM13.1868 9.738C13.0728 9.73796 12.9607 9.70912 12.8609 9.65414C12.4434 9.46058 12.0747 9.17571 11.7821 8.82057C11.4894 8.46544 11.2803 8.0491 11.1702 7.60231C11.1074 7.15898 11.133 6.70761 11.2455 6.27422C11.3579 5.84082 11.5551 5.43396 11.8255 5.07709C11.938 4.9422 12.0985 4.85636 12.2732 4.83775C12.4479 4.81914 12.6229 4.86922 12.7613 4.97739C12.8997 5.08555 12.9906 5.24332 13.0147 5.41731C13.0389 5.59129 12.9943 5.76784 12.8906 5.90959C12.584 6.31956 12.4435 6.83013 12.497 7.33924C12.5742 7.58985 12.7048 7.8207 12.88 8.01582C13.0551 8.21094 13.2706 8.36567 13.5114 8.4693C13.6429 8.54169 13.7466 8.65576 13.8061 8.79354C13.8656 8.93132 13.8776 9.08499 13.8402 9.23034C13.8028 9.37568 13.7181 9.50445 13.5994 9.59636C13.4807 9.68827 13.3349 9.7381 13.1848 9.738H13.1868Z" fill="#01618A"/>
<path d="M7.16796 12.7691H7.14903C6.97037 12.7641 6.80093 12.6886 6.67776 12.5591C6.55458 12.4296 6.48768 12.2566 6.49169 12.0779C6.49877 10.6623 7.05073 9.30383 8.03297 8.28444C9.01521 7.26505 10.3523 6.66306 11.7666 6.60345C11.946 6.59224 12.1225 6.65274 12.2572 6.77164C12.392 6.89054 12.474 7.0581 12.4852 7.23746C12.4964 7.41682 12.4359 7.59329 12.317 7.72804C12.1981 7.8628 12.0305 7.9448 11.8512 7.95601C8.00857 8.19676 7.84762 11.9555 7.84289 12.1158C7.83693 12.2909 7.76324 12.4569 7.63735 12.5787C7.51145 12.7006 7.34317 12.7688 7.16796 12.7691Z" fill="#01618A"/>
<path d="M22.3287 25.4716C21.6496 25.4712 20.973 25.3893 20.3134 25.2274C17.8443 24.6188 16.8448 23.4691 16.4458 22.7252C14.8626 23.0478 10.6224 23.5367 8.86068 20.012C8.42001 19.2627 8.24856 18.3853 8.37475 17.5252C8.50094 16.6651 8.91719 15.8739 9.55454 15.2828C10.5123 14.3722 11.7898 13.875 13.1111 13.8984C13.5772 12.9323 14.3813 12.1705 15.3712 11.7574C16.6061 11.2961 18.0222 11.5328 19.5803 12.46C19.7323 12.5528 19.8415 12.7016 19.8843 12.8744C19.9272 13.0471 19.9002 13.2298 19.8092 13.3828C19.7183 13.5358 19.5707 13.6467 19.3984 13.6916C19.2262 13.7365 19.0432 13.7117 18.8892 13.6225C17.7044 12.9172 16.6825 12.7136 15.8534 13.0213C15.4575 13.2081 15.1024 13.471 14.8082 13.7951C14.5141 14.1192 14.2867 14.4981 14.139 14.9102C14.1075 15.0048 14.0553 15.0913 13.9864 15.1635C13.9174 15.2356 13.8333 15.2916 13.7402 15.3274C13.647 15.3632 13.5471 15.378 13.4476 15.3706C13.348 15.3633 13.2514 15.334 13.1645 15.2848C12.869 15.1184 11.4738 15.3234 10.4865 16.2634C10.0557 16.653 9.77746 17.1829 9.70128 17.7587C9.6251 18.3344 9.75597 18.9185 10.0705 19.4067C11.7044 22.6765 16.6183 21.2962 16.6683 21.2827C16.7613 21.2557 16.859 21.249 16.9548 21.263C17.0507 21.277 17.1424 21.3114 17.2237 21.3639C17.3051 21.4164 17.3742 21.4858 17.4265 21.5674C17.4787 21.6489 17.5128 21.7407 17.5265 21.8366C17.5353 21.8758 17.8349 23.2223 20.6374 23.9121C22.8102 24.4477 24.854 23.8681 25.5742 22.9991C25.7427 22.7991 25.8455 22.552 25.8686 22.2915C25.8918 22.031 25.834 21.7696 25.7034 21.5431C25.6284 21.3801 25.6212 21.1941 25.6834 21.0258C25.7456 20.8576 25.8721 20.721 26.0351 20.646C26.198 20.571 26.3841 20.5639 26.5523 20.6261C26.7206 20.6883 26.8572 20.8148 26.9322 20.9777C27.1707 21.4355 27.268 21.9538 27.2119 22.467C27.1558 22.9802 26.9488 23.4652 26.617 23.8607C25.7676 24.8866 24.1243 25.4716 22.3287 25.4716Z" stroke="#01618A" stroke-width="0.5"/>
<path d="M7.97611 19.2498C6.46308 19.2783 4.98053 18.8227 3.74465 17.9494C2.2095 16.8044 1.29923 14.9846 1.03954 12.5391C0.60875 8.49094 3.79537 6.65959 5.86883 6.15305C6.19074 5.1028 7.27008 2.55729 10.2491 2.13259C12.0333 1.85932 13.858 2.06277 15.5382 2.7223C16.3849 1.69165 18.2332 0.50614 21.102 1.21488C23.9139 1.90806 25.0102 3.04759 25.4301 3.76106C26.9991 3.57779 31.4294 3.52234 33.1025 8.26236C34.2076 11.3928 32.6683 12.6365 31.9528 13.0267C30.1147 14.031 27.3048 13.304 26.2944 12.0035C24.5429 9.75288 25.727 8.18797 25.7784 8.12237C25.8323 8.05011 25.9001 7.98935 25.9779 7.94367C26.0556 7.89799 26.1417 7.86831 26.231 7.85638C26.3204 7.84445 26.4112 7.85051 26.4982 7.8742C26.5852 7.89789 26.6666 7.93874 26.7376 7.99433C26.8085 8.04993 26.8677 8.11916 26.9115 8.19794C26.9553 8.27673 26.983 8.36348 26.9928 8.4531C27.0026 8.54272 26.9944 8.6334 26.9686 8.7198C26.9429 8.8062 26.9001 8.88658 26.8429 8.95622C26.83 8.97651 26.2843 9.78872 27.3616 11.1731C28.0054 12.0015 30.112 12.4904 31.3043 11.8399C32.4296 11.2251 32.2078 9.79954 31.8243 8.71276C30.1918 4.0877 25.3733 5.12105 25.1705 5.16637C25.0814 5.18676 24.9892 5.18891 24.8993 5.17268C24.8094 5.15645 24.7237 5.12218 24.6475 5.07194C24.5712 5.0217 24.5059 4.95652 24.4555 4.88035C24.4051 4.80417 24.3706 4.71858 24.3542 4.62872C24.3542 4.62872 23.9559 3.31269 20.7699 2.52753C17.584 1.74237 16.4066 3.81246 16.3579 3.89835C16.3146 3.97728 16.2561 4.04685 16.1858 4.10302C16.1155 4.15919 16.0347 4.20084 15.9481 4.22556C15.8616 4.25028 15.771 4.25758 15.6816 4.24703C15.5922 4.23649 15.5058 4.20831 15.4273 4.16412C13.8689 3.43794 12.1283 3.19645 10.431 3.47094C7.70357 3.86047 7.0956 6.73871 7.07058 6.86044C7.04405 6.99523 6.9771 7.11875 6.87864 7.21455C6.78018 7.31035 6.65488 7.3739 6.51941 7.39673C6.33343 7.42919 1.93358 8.24004 2.37586 12.3964C2.60106 14.4483 3.32874 15.9496 4.54401 16.8605C5.82422 17.7123 7.37479 18.059 8.89585 17.8337C9.07234 17.8012 9.2545 17.8402 9.40225 17.9421C9.55 18.0439 9.65125 18.2003 9.68371 18.3768C9.71618 18.5533 9.6772 18.7354 9.57536 18.8832C9.47351 19.0309 9.31715 19.1322 9.14066 19.1646C8.75553 19.2255 8.36599 19.254 7.97611 19.2498Z" stroke="#01618A" stroke-width="0.5"/>
<path d="M32.7279 21.7818H32.7137C32.5344 21.7779 32.364 21.703 32.24 21.5735C32.116 21.444 32.0484 21.2706 32.0523 21.0913C32.0524 21.002 32.0705 20.9137 32.1056 20.8316C32.1407 20.7495 32.1921 20.6753 32.2566 20.6135C32.321 20.5517 32.3974 20.5036 32.4809 20.4721C32.5644 20.4405 32.6535 20.4262 32.7427 20.4299C32.8036 20.4299 34.545 20.3576 35.2166 17.0431C35.9151 13.5941 32.4384 11.639 32.4026 11.6201C32.3247 11.5773 32.256 11.5196 32.2004 11.4503C32.1448 11.381 32.1034 11.3014 32.0786 11.2161C32.0537 11.1308 32.0459 11.0414 32.0556 10.9531C32.0653 10.8648 32.0923 10.7793 32.1351 10.7014C32.1779 10.6235 32.2355 10.5548 32.3049 10.4992C32.3742 10.4436 32.4538 10.4022 32.5391 10.3774C32.6244 10.3525 32.7137 10.3447 32.8021 10.3544C32.8904 10.3641 32.9759 10.3911 33.0538 10.4339C34.5727 11.2677 37.2569 13.7774 36.5421 17.3116C35.6582 21.6784 32.9754 21.7818 32.7279 21.7818Z" stroke="#01618A" stroke-width="0.5"/>
<path d="M28.8054 25.9998C27.3541 25.9279 25.9377 25.5294 24.6619 24.8338C24.5055 24.746 24.3904 24.5995 24.342 24.4268C24.2935 24.2541 24.3157 24.0692 24.4036 23.9128C24.4914 23.7564 24.6379 23.6413 24.8106 23.5928C24.9833 23.5444 25.1682 23.5665 25.3246 23.6544C25.351 23.6693 28.0135 25.1422 29.8686 24.4822C30.2082 24.3558 30.5151 24.1547 30.7667 23.8938C31.0182 23.6329 31.2079 23.3188 31.3219 22.9748C31.6282 22.3263 31.7699 21.6124 31.7345 20.8962C31.6991 20.1799 31.4877 19.4835 31.119 18.8684C30.6574 18.2185 30.0486 17.687 29.3423 17.3174C28.636 16.9478 27.8523 16.7504 27.0552 16.7415C26.8759 16.7325 26.7074 16.6527 26.5869 16.5195C26.4665 16.3864 26.4038 16.2108 26.4128 16.0314C26.4217 15.8521 26.5016 15.6836 26.6348 15.5631C26.7679 15.4426 26.9435 15.38 27.1229 15.389C28.1347 15.4086 29.1276 15.6679 30.0199 16.1454C30.9122 16.6229 31.6787 17.3051 32.2565 18.136C32.7395 18.9326 33.0211 19.835 33.0768 20.765C33.1326 21.695 32.9608 22.6245 32.5764 23.4732C32.3922 23.9978 32.0937 24.4748 31.7025 24.8698C31.3112 25.2648 30.837 25.5678 30.3142 25.757C29.8287 25.923 29.3185 26.0051 28.8054 25.9998ZM17.7808 9.16924C17.6175 9.16956 17.4595 9.11076 17.3362 9.00371C17.2128 8.89666 17.1324 8.74858 17.1097 8.58684C17.0871 8.4251 17.1237 8.26061 17.2128 8.12377C17.302 7.98693 17.4377 7.88698 17.5948 7.84239C17.8156 7.79914 18.0222 7.70182 18.1962 7.55913C18.3702 7.41645 18.506 7.23284 18.5916 7.02477C18.6676 6.72123 18.6731 6.40431 18.6075 6.09834C18.542 5.79237 18.4072 5.50548 18.2136 5.25969C18.1115 5.11225 18.0721 4.93028 18.1041 4.7538C18.1361 4.57732 18.2369 4.42079 18.3844 4.31865C18.5318 4.2165 18.7138 4.17711 18.8902 4.20913C19.0667 4.24115 19.2232 4.34197 19.3254 4.48941C19.6445 4.91017 19.8598 5.40029 19.9538 5.91991C20.0478 6.43954 20.0178 6.97402 19.8664 7.4799C19.7091 7.89043 19.454 8.25642 19.1234 8.54619C18.7927 8.83595 18.3964 9.04076 17.9688 9.14287C17.9077 9.16069 17.8444 9.16958 17.7808 9.16924Z" stroke="#01618A" stroke-width="0.5"/>
<path d="M22.7494 12.8827C22.5737 12.8828 22.4049 12.8145 22.2787 12.6923C22.1525 12.5701 22.0787 12.4036 22.0731 12.2281C21.9379 8.08383 19.322 7.85119 19.2104 7.84308C19.0319 7.83143 18.8653 7.74952 18.747 7.6153C18.6288 7.48107 18.5685 7.30546 18.5795 7.1269C18.5892 6.94913 18.6691 6.78251 18.8016 6.66358C18.9341 6.54466 19.1084 6.48315 19.2862 6.49255C19.3254 6.49255 23.2512 6.75833 23.4243 12.1848C23.43 12.3639 23.3643 12.538 23.2416 12.6687C23.119 12.7995 22.9495 12.8762 22.7704 12.882L22.7494 12.8827ZM18.1487 20.3319C18.0258 20.3317 17.9053 20.2981 17.8001 20.2347C17.695 20.1712 17.609 20.0803 17.5516 19.9717C17.4942 19.8632 17.4674 19.741 17.4742 19.6183C17.481 19.4956 17.521 19.3772 17.5901 19.2755C17.7863 19.0446 17.9302 18.7739 18.0119 18.482C18.0936 18.1902 18.1112 17.8841 18.0635 17.5848C17.9605 17.3788 17.8179 17.1951 17.6439 17.0442C17.4698 16.8933 17.2677 16.7783 17.049 16.7057C16.8776 16.6528 16.7342 16.5339 16.6503 16.3753C16.5665 16.2166 16.5491 16.0311 16.602 15.8597C16.6549 15.6882 16.7738 15.5448 16.9325 15.4609C17.0911 15.3771 17.2766 15.3597 17.448 15.4126C17.8683 15.548 18.2547 15.7718 18.5813 16.0689C18.9079 16.366 19.1672 16.7295 19.3416 17.1351C19.4772 17.633 19.4908 18.1562 19.3812 18.6604C19.2716 19.1646 19.0421 19.635 18.712 20.0316C18.6501 20.1242 18.5663 20.2 18.468 20.2524C18.3697 20.3048 18.26 20.3321 18.1487 20.3319Z" stroke="#01618A" stroke-width="0.5"/>
<path d="M23.7827 20.3319C23.633 20.3317 23.4876 20.2819 23.3693 20.1903C23.2509 20.0986 23.1664 19.9702 23.1288 19.8253C23.0645 19.4426 22.9151 19.0792 22.6917 18.7619C22.4682 18.4446 22.1764 18.1815 21.8378 17.992C20.6543 17.4313 19.0955 18.1414 19.0799 18.1489C18.9995 18.1866 18.9124 18.208 18.8237 18.2121C18.735 18.2162 18.6463 18.2027 18.5628 18.1725C18.4793 18.1423 18.4025 18.0959 18.3369 18.0361C18.2713 17.9762 18.2182 17.904 18.1805 17.8236C18.1428 17.7431 18.1213 17.6561 18.1172 17.5674C18.1132 17.4786 18.1266 17.39 18.1568 17.3065C18.187 17.2229 18.2334 17.1462 18.2933 17.0806C18.3531 17.015 18.4253 16.9618 18.5057 16.9241C18.5923 16.8829 20.6448 15.9381 22.4072 16.7645C22.93 17.0338 23.3846 17.4188 23.7361 17.8903C24.0877 18.3618 24.3271 18.9072 24.436 19.4852C24.4621 19.5852 24.4648 19.69 24.4441 19.7913C24.4234 19.8926 24.3797 19.9877 24.3164 20.0695C24.2531 20.1513 24.1719 20.2175 24.079 20.2629C23.9862 20.3084 23.8841 20.332 23.7807 20.3319H23.7827ZM5.31632 14.0777C5.22159 14.0777 5.12795 14.0574 5.04175 14.0182C4.87928 13.9452 4.75215 13.8111 4.68795 13.645C4.62376 13.4789 4.62768 13.2941 4.69888 13.1309C4.88107 12.7293 5.14862 12.3722 5.48289 12.0845C5.81715 11.7969 6.2101 11.5855 6.63438 11.4652C7.53991 11.2752 8.4982 11.6397 9.47474 12.5473C9.53997 12.6076 9.59269 12.6801 9.62988 12.7608C9.66707 12.8415 9.688 12.9287 9.69149 13.0174C9.69497 13.1062 9.68094 13.1948 9.65019 13.2781C9.61944 13.3615 9.57258 13.4379 9.51228 13.5032C9.45197 13.5684 9.37941 13.6211 9.29874 13.6583C9.21807 13.6955 9.13086 13.7164 9.04209 13.7199C8.95333 13.7234 8.86474 13.7094 8.7814 13.6786C8.69806 13.6479 8.62159 13.601 8.55636 13.5407C8.35284 13.3044 8.10056 13.1151 7.81688 12.9856C7.53319 12.8561 7.22483 12.7897 6.91301 12.7907C6.69682 12.8636 6.49809 12.9805 6.32932 13.1341C6.16055 13.2876 6.02541 13.4744 5.9324 13.6827C5.87802 13.8004 5.79113 13.9001 5.68199 13.9701C5.57284 14.0401 5.44597 14.0774 5.31632 14.0777ZM13.1868 9.738C13.0728 9.73796 12.9607 9.70912 12.8609 9.65414C12.4434 9.46058 12.0747 9.17571 11.7821 8.82057C11.4894 8.46544 11.2803 8.0491 11.1702 7.60231C11.1074 7.15898 11.133 6.70761 11.2455 6.27422C11.3579 5.84082 11.5551 5.43396 11.8255 5.07709C11.938 4.9422 12.0985 4.85636 12.2732 4.83775C12.4479 4.81914 12.6229 4.86922 12.7613 4.97739C12.8997 5.08555 12.9906 5.24332 13.0147 5.41731C13.0389 5.59129 12.9943 5.76784 12.8906 5.90959C12.584 6.31956 12.4435 6.83013 12.497 7.33924C12.5742 7.58985 12.7048 7.8207 12.88 8.01582C13.0551 8.21094 13.2706 8.36567 13.5114 8.4693C13.6429 8.54169 13.7466 8.65576 13.8061 8.79354C13.8656 8.93132 13.8776 9.08499 13.8402 9.23034C13.8028 9.37568 13.7181 9.50445 13.5994 9.59636C13.4807 9.68827 13.3349 9.7381 13.1848 9.738H13.1868Z" stroke="#01618A" stroke-width="0.5"/>
<path d="M7.16796 12.7691H7.14903C6.97037 12.7641 6.80093 12.6886 6.67776 12.5591C6.55458 12.4296 6.48768 12.2566 6.49169 12.0779C6.49877 10.6623 7.05073 9.30383 8.03297 8.28444C9.01521 7.26505 10.3523 6.66306 11.7666 6.60345C11.946 6.59224 12.1225 6.65274 12.2572 6.77164C12.392 6.89054 12.474 7.0581 12.4852 7.23746C12.4964 7.41682 12.4359 7.59329 12.317 7.72804C12.1981 7.8628 12.0305 7.9448 11.8512 7.95601C8.00857 8.19676 7.84762 11.9555 7.84289 12.1158C7.83693 12.2909 7.76324 12.4569 7.63735 12.5787C7.51145 12.7006 7.34317 12.7688 7.16796 12.7691Z" stroke="#01618A" stroke-width="0.5"/>
</svg>
