<svg width="14" height="20" viewBox="0 0 14 20" fill="none" xmlns="http://www.w3.org/2000/svg">
<path d="M7.44333 0.205603C7.38857 0.141123 7.32061 0.0893588 7.24413 0.0538678C7.16764 0.0183768 7.08444 0 7.00024 0C6.91605 0 6.83285 0.0183768 6.75636 0.0538678C6.67987 0.0893588 6.61192 0.141123 6.55715 0.205603C5.01813 2.02047 0 8.2948 0 12.9425C0 17.2735 2.70472 20 7 20C11.2953 20 14 17.2735 14 12.9425C14 8.2948 8.98187 2.02047 7.44333 0.205603ZM7.77778 17.4514C7.68435 17.4517 7.59224 17.4292 7.50919 17.3861C7.42615 17.3429 7.3546 17.2803 7.30058 17.2034C7.24655 17.1266 7.21163 17.0377 7.19874 16.9444C7.18585 16.8511 7.19538 16.7561 7.22653 16.6673C7.26631 16.5514 7.34133 16.4511 7.44091 16.3807C7.5405 16.3103 7.65957 16.2734 7.78118 16.2752C8.55331 16.2735 9.29334 15.9635 9.83932 15.413C10.3853 14.8626 10.6928 14.1165 10.6944 13.338C10.6927 13.2154 10.7293 13.0953 10.7991 12.9949C10.8689 12.8945 10.9684 12.8189 11.0833 12.7788C11.1714 12.7474 11.2657 12.7378 11.3582 12.7508C11.4508 12.7638 11.5389 12.799 11.6151 12.8534C11.6913 12.9079 11.7534 12.98 11.7963 13.0638C11.8391 13.1475 11.8613 13.2404 11.8611 13.3346C11.86 14.4261 11.4294 15.4725 10.6639 16.2444C9.89833 17.0162 8.86039 17.4503 7.77778 17.4514Z" fill="#01618A"/>
<path d="M4.47061 9.96203V10.2447H4.48289C4.50744 10.2053 4.53882 10.166 4.57701 10.1266C4.61793 10.0844 4.66704 10.0478 4.72433 10.0169C4.78163 9.98312 4.84574 9.9564 4.91667 9.93671C4.99033 9.9142 5.07218 9.90295 5.16221 9.90295C5.30135 9.90295 5.42957 9.93108 5.54688 9.98734C5.66419 10.0408 5.76514 10.1153 5.84971 10.211C5.93429 10.3066 5.99976 10.4191 6.04614 10.5485C6.09252 10.6779 6.11571 10.8172 6.11571 10.9662C6.11571 11.1153 6.09252 11.256 6.04614 11.3882C6.00249 11.5176 5.93838 11.6315 5.8538 11.73C5.77196 11.8256 5.67101 11.903 5.55097 11.962C5.43366 12.0183 5.29998 12.0464 5.14993 12.0464C5.01079 12.0464 4.88257 12.0169 4.76526 11.9578C4.65067 11.8987 4.56201 11.8186 4.49926 11.7173H4.49107V13H4V9.96203H4.47061ZM5.61645 10.9662C5.61645 10.8875 5.60417 10.8101 5.57962 10.7342C5.5578 10.6554 5.52369 10.5851 5.47731 10.5232C5.43093 10.4613 5.37228 10.4121 5.30135 10.3755C5.23041 10.3361 5.1472 10.3165 5.05172 10.3165C4.96169 10.3165 4.8812 10.3361 4.81027 10.3755C4.73934 10.4149 4.67795 10.4655 4.62612 10.5274C4.57701 10.5893 4.53882 10.6596 4.51154 10.7384C4.48698 10.8172 4.4747 10.8959 4.4747 10.9747C4.4747 11.0534 4.48698 11.1322 4.51154 11.211C4.53882 11.2869 4.57701 11.3558 4.62612 11.4177C4.67795 11.4796 4.73934 11.5302 4.81027 11.5696C4.8812 11.6062 4.96169 11.6245 5.05172 11.6245C5.1472 11.6245 5.23041 11.6048 5.30135 11.5654C5.37228 11.526 5.43093 11.4754 5.47731 11.4135C5.52369 11.3516 5.5578 11.2813 5.57962 11.2025C5.60417 11.1238 5.61645 11.045 5.61645 10.9662Z" fill="white"/>
<path d="M6.6142 9H7.12983V10.2068H8.48437V9H9V11.9873H8.48437V10.6624H7.12983V11.9873H6.6142V9Z" fill="white"/>
</svg>
