<svg width="10" height="22" viewBox="0 0 10 22" fill="none" xmlns="http://www.w3.org/2000/svg">
<path d="M5.21048 4.57183V16.7161M7.47892 13.067C7.429 13.0348 7.38787 12.9903 7.35934 12.9376C7.33082 12.8849 7.31583 12.8258 7.31576 12.7656V3.1431C7.31576 2.57471 7.09396 2.02961 6.69914 1.6277C6.30432 1.22579 5.76883 1 5.21048 1C4.65212 1 4.11663 1.22579 3.72181 1.6277C3.327 2.02961 3.10519 2.57471 3.10519 3.1431V12.7656C3.1051 12.8256 3.09014 12.8847 3.0617 12.9373C3.03326 12.9899 2.99225 13.0343 2.94247 13.0665C2.31887 13.48 1.81207 14.052 1.47216 14.726C1.13224 15.4 0.970969 16.1525 1.00429 16.9094C1.05448 18.0278 1.5326 19.0819 2.3364 19.8462C3.1402 20.6104 4.20586 21.0242 5.30546 20.9989C6.40506 20.9737 7.45131 20.5114 8.22043 19.711C8.98954 18.9106 9.42048 17.8357 9.42105 16.7161C9.42136 15.9913 9.24388 15.278 8.90473 14.6407C8.56558 14.0035 8.07549 13.4625 7.47892 13.067Z" stroke="#01618A" stroke-miterlimit="10" stroke-linecap="round"/>
<path d="M5.21055 18.8947C6.37325 18.8947 7.31581 17.9522 7.31581 16.7895C7.31581 15.6268 6.37325 14.6842 5.21055 14.6842C4.04784 14.6842 3.10529 15.6268 3.10529 16.7895C3.10529 17.9522 4.04784 18.8947 5.21055 18.8947Z" fill="#01618A"/>
</svg>
