<svg width="14" height="21" viewBox="0 0 14 21" fill="none" xmlns="http://www.w3.org/2000/svg">
<path d="M4.21586 0.5C10.2421 2.47183 10.2421 8.51736 6.58986 11.0634C1.1114 14.8824 2.02448 17.9648 4.21586 20.5M8.96385 0.5C13.8944 3.17606 14.9901 8.51736 11.3378 11.0634C5.85939 14.8824 6.22462 18.1056 8.96385 20.5M9.87692 2.33099C10.868 3.24289 11.2594 3.7847 11.3378 4.8662M9.87692 10.2183C9.40599 11.0362 9.14646 11.3451 8.05077 12.0493M4.94632 16.4155C4.98663 17.2672 5.17337 17.8007 5.67678 18.8099" stroke="#01618A" stroke-width="0.5" stroke-linejoin="round"/>
<path fill-rule="evenodd" clip-rule="evenodd" d="M2.50006 2.96599C2.707 3.23335 3.09288 3.7578 3.43491 4.36555C3.80443 5.02214 4.1 5.73697 4.1 6.31855C4.1 6.87457 3.9404 7.3059 3.67281 7.59777C3.40522 7.88964 3.00977 8.06371 2.5 8.06371C1.99023 8.06371 1.59478 7.88964 1.32719 7.59777C1.0596 7.3059 0.9 6.87457 0.9 6.31855C0.9 5.73697 1.19557 5.02214 1.5651 4.36555C1.90716 3.75779 2.29307 3.23333 2.50006 2.96599ZM2.35373 2.53497C2.39962 2.51193 2.44954 2.5 2.50006 2.5C2.55058 2.5 2.6005 2.51193 2.64639 2.53497C2.69228 2.558 2.73306 2.5916 2.76592 2.63346L2.76603 2.63361C2.96707 2.89015 3.39602 3.46248 3.77581 4.13731C4.15038 4.80288 4.5 5.60722 4.5 6.31855C4.5 6.96738 4.31191 7.5177 3.95566 7.90627C3.5994 8.29484 3.09486 8.5 2.5 8.5C1.90514 8.5 1.4006 8.29484 1.04434 7.90627C0.688091 7.5177 0.5 6.96738 0.5 6.31855C0.5 5.60722 0.849618 4.80288 1.22421 4.1373C1.60401 3.46247 2.033 2.89014 2.23411 2.63358L2.23421 2.63346C2.26707 2.5916 2.30784 2.558 2.35373 2.53497Z" fill="#01618A"/>
<path fill-rule="evenodd" clip-rule="evenodd" d="M3.6 6.20948C3.71046 6.20948 3.8 6.30715 3.8 6.42763C3.8 6.74583 3.68411 7.051 3.47782 7.27601C3.27153 7.50101 2.99174 7.62742 2.7 7.62742C2.58954 7.62742 2.5 7.52976 2.5 7.40928C2.5 7.2888 2.58954 7.19113 2.7 7.19113C2.88565 7.19113 3.0637 7.11069 3.19497 6.96751C3.32625 6.82432 3.4 6.63012 3.4 6.42763C3.4 6.30715 3.48954 6.20948 3.6 6.20948Z" fill="#01618A"/>
<path fill-rule="evenodd" clip-rule="evenodd" d="M11.5001 12.966C11.707 13.2334 12.0929 13.7578 12.4349 14.3656C12.8044 15.0221 13.1 15.737 13.1 16.3186C13.1 16.8746 12.9404 17.3059 12.6728 17.5978C12.4052 17.8896 12.0098 18.0637 11.5 18.0637C10.9902 18.0637 10.5948 17.8896 10.3272 17.5978C10.0596 17.3059 9.9 16.8746 9.9 16.3186C9.9 15.737 10.1956 15.0221 10.5651 14.3656C10.9072 13.7578 11.2931 13.2333 11.5001 12.966ZM11.3537 12.535C11.3996 12.5119 11.4495 12.5 11.5001 12.5C11.5506 12.5 11.6005 12.5119 11.6464 12.535C11.6923 12.558 11.7331 12.5916 11.7659 12.6335L11.766 12.6336C11.9671 12.8901 12.396 13.4625 12.7758 14.1373C13.1504 14.8029 13.5 15.6072 13.5 16.3186C13.5 16.9674 13.3119 17.5177 12.9557 17.9063C12.5994 18.2948 12.0949 18.5 11.5 18.5C10.9051 18.5 10.4006 18.2948 10.0443 17.9063C9.68809 17.5177 9.5 16.9674 9.5 16.3186C9.5 15.6072 9.84962 14.8029 10.2242 14.1373C10.604 13.4625 11.033 12.8901 11.2341 12.6336L11.2342 12.6335C11.2671 12.5916 11.3078 12.558 11.3537 12.535Z" fill="#01618A"/>
<path fill-rule="evenodd" clip-rule="evenodd" d="M12.6 16.2095C12.7105 16.2095 12.8 16.3071 12.8 16.4276C12.8 16.7458 12.6841 17.051 12.4778 17.276C12.2715 17.501 11.9917 17.6274 11.7 17.6274C11.5895 17.6274 11.5 17.5298 11.5 17.4093C11.5 17.2888 11.5895 17.1911 11.7 17.1911C11.8857 17.1911 12.0637 17.1107 12.195 16.9675C12.3263 16.8243 12.4 16.6301 12.4 16.4276C12.4 16.3071 12.4895 16.2095 12.6 16.2095Z" fill="#01618A"/>
</svg>
