<svg width="30" height="22" viewBox="0 0 30 22" fill="none" xmlns="http://www.w3.org/2000/svg">
<path d="M0.456512 12.0433C15 7.19533 11.1217 15.9214 29.5435 12.0433M0.456512 15.9215C12.0913 13.0127 16.9391 19.7998 29.5435 15.9215M0.456512 19.7998C15 14.9519 11.1217 23.678 29.5435 19.7998" stroke="white" stroke-linejoin="round"/>
<path fill-rule="evenodd" clip-rule="evenodd" d="M19.391 2.94365C18.3713 2.94365 17.474 3.59817 17.2672 4.74673L17.2671 4.74706C17.2462 4.86229 17.1861 4.96854 17.0953 5.0507C17.0046 5.13269 16.8881 5.18651 16.7621 5.20452C16.4652 5.24788 16.1708 5.35791 15.9561 5.53414C15.7487 5.70441 15.6057 5.94323 15.6057 6.27989C15.6057 6.67534 15.762 6.93491 15.9918 7.10218C16.2315 7.27662 16.5835 7.37351 17.0062 7.37351H21.435C22.4201 7.37351 23.1762 6.75655 23.1762 5.90612C23.1762 5.47572 23.0101 5.15114 22.7531 4.91659C22.4916 4.67781 22.1205 4.51923 21.6967 4.45606L21.6966 4.45604C21.5932 4.4406 21.4961 4.40083 21.4147 4.34063C21.3333 4.28043 21.2705 4.20188 21.2324 4.11273L21.2323 4.11251C20.9729 3.50364 20.3373 2.94365 19.391 2.94365ZM16.6696 4.65646C16.9205 3.26391 18.0498 2.38992 19.391 2.38992C20.6365 2.38992 21.4652 3.1353 21.7959 3.90981C22.3177 3.98787 22.8128 4.18861 23.181 4.52472C23.5543 4.86545 23.7819 5.33201 23.7819 5.90612C23.7819 7.11142 22.6983 7.92724 21.435 7.92724H17.0062C16.4921 7.92724 15.9924 7.81042 15.6146 7.53538C15.2269 7.25318 15 6.8275 15 6.27989C15 5.77781 15.223 5.39178 15.5515 5.12209C15.8727 4.85847 16.2842 4.71346 16.6673 4.65762L16.6685 4.65743C16.6688 4.6574 16.6691 4.65728 16.6693 4.6571C16.6694 4.65698 16.6695 4.65685 16.6696 4.6567C16.6696 4.65663 16.6696 4.65654 16.6696 4.65646Z" fill="white"/>
<path fill-rule="evenodd" clip-rule="evenodd" d="M21.3593 0.174988C21.5265 0.174988 21.6621 0.298945 21.6621 0.451854V1.00559C21.6621 1.1585 21.5265 1.28245 21.3593 1.28245C21.1921 1.28245 21.0565 1.1585 21.0565 1.00559V0.451854C21.0565 0.298945 21.1921 0.174988 21.3593 0.174988ZM19.0038 1.06695C19.1221 0.958829 19.3138 0.958829 19.4321 1.06695L19.8604 1.45854C19.9787 1.56667 19.9787 1.74197 19.8604 1.85009C19.7421 1.95821 19.5504 1.95821 19.4321 1.85009L19.0038 1.4585C18.8856 1.35038 18.8856 1.17507 19.0038 1.06695ZM23.7148 1.06695C23.833 1.17507 23.833 1.35038 23.7148 1.4585L23.2865 1.85009C23.1682 1.95821 22.9765 1.95821 22.8582 1.85009C22.7399 1.74197 22.7399 1.56667 22.8582 1.45854L23.2865 1.06695C23.4048 0.958829 23.5965 0.958829 23.7148 1.06695ZM20.8522 1.62593C21.1217 1.5545 21.4055 1.54108 21.6816 1.58673C21.9576 1.63237 22.2184 1.73584 22.4434 1.88903C22.6684 2.04221 22.8515 2.24096 22.9785 2.46968C23.1054 2.6984 23.1727 2.9509 23.1751 3.20737C23.1775 3.46385 23.1148 3.71735 22.9921 3.948C22.8694 4.17865 22.69 4.3802 22.4678 4.53683C22.3354 4.63022 22.1453 4.60776 22.0431 4.48668C21.941 4.3656 21.9655 4.19174 22.098 4.09836C22.2461 3.99393 22.3657 3.85957 22.4475 3.7058C22.5293 3.55204 22.5711 3.38304 22.5695 3.21205C22.5679 3.04107 22.523 2.87274 22.4384 2.72026C22.3538 2.56777 22.2317 2.43528 22.0817 2.33315C21.9317 2.23103 21.7578 2.16205 21.5738 2.13162C21.3898 2.10119 21.2005 2.11014 21.0209 2.15776C20.8413 2.20538 20.6761 2.29038 20.5385 2.4061C20.4008 2.52183 20.2943 2.66513 20.2273 2.82477C20.1674 2.96754 19.9922 3.03888 19.8361 2.98412C19.6799 2.92935 19.6019 2.76922 19.6618 2.62646C19.7623 2.38698 19.922 2.17203 20.1286 1.99845C20.3351 1.82487 20.5828 1.69736 20.8522 1.62593ZM23.4791 3.22052C23.4791 3.06761 23.6146 2.94365 23.7819 2.94365H24.3875C24.5548 2.94365 24.6903 3.06761 24.6903 3.22052C24.6903 3.37342 24.5548 3.49738 24.3875 3.49738H23.7819C23.6146 3.49738 23.4791 3.37342 23.4791 3.22052Z" fill="white"/>
</svg>
