<svg width="32" height="21" viewBox="0 0 32 21" fill="none" xmlns="http://www.w3.org/2000/svg">
<path fill-rule="evenodd" clip-rule="evenodd" d="M13.946 0.54564C13.9771 0.510586 14.0238 0.494079 14.0697 0.501918C16.5044 0.917571 18.9259 2.69215 19.9018 3.47772C23.8414 3.66404 26.5557 5.0539 28.2881 6.57683C29.1568 7.34049 29.7782 8.1373 30.1832 8.83185C30.585 9.5208 30.7826 10.1244 30.7826 10.5C30.7826 10.8904 30.5855 11.5014 30.183 12.194C29.7774 12.8917 29.1551 13.6868 28.2848 14.4467C26.5492 15.9622 23.829 17.3367 19.8781 17.5235C18.8871 18.3234 16.4851 20.0854 14.0697 20.4981C14.0238 20.5059 13.9771 20.4894 13.946 20.4544C13.915 20.4193 13.9039 20.3706 13.9167 20.3254L14.8546 17.0095C12.1438 16.3023 9.77466 14.3148 8.18431 12.9807C8.00434 12.8297 7.83435 12.6871 7.67496 12.5556C7.24044 12.9561 6.7843 13.3321 6.30863 13.6817C5.18125 14.5135 3.94529 14.9794 2.99386 15.2374C2.51764 15.3666 2.11136 15.444 1.82363 15.4892C1.67973 15.5119 1.56538 15.5264 1.48665 15.5354C1.44728 15.5399 1.41681 15.5429 1.39599 15.5449C1.38558 15.5459 1.37758 15.5466 1.37209 15.547L1.36575 15.5476L1.36401 15.5477L1.3635 15.5477L1.36333 15.5478C1.36333 15.5478 1.36323 15.5478 1.35301 15.4112C1.22058 15.3816 1.2206 15.3816 1.2206 15.3816L1.22075 15.3808L1.22119 15.3789L1.22283 15.3715C1.22427 15.3652 1.22641 15.3558 1.22925 15.3436C1.23493 15.3193 1.24345 15.2836 1.2549 15.2378C1.27781 15.146 1.31249 15.0135 1.35981 14.8493C1.45443 14.5209 1.59976 14.0649 1.80289 13.5537C2.19309 12.5718 2.80129 11.374 3.68227 10.4895C2.80129 9.60531 2.19309 8.40769 1.80289 7.42584C1.59976 6.91472 1.45443 6.45875 1.35981 6.13036C1.31249 5.9661 1.27781 5.83361 1.2549 5.74191C1.24345 5.69605 1.23493 5.66038 1.22925 5.63602C1.22641 5.62385 1.22427 5.6145 1.22283 5.60811L1.22119 5.60078L1.22075 5.59882L1.22063 5.59827L1.2206 5.5981C1.2206 5.5981 1.22058 5.59801 1.35301 5.56849C1.36323 5.4319 1.36333 5.43191 1.36333 5.43191L1.3635 5.43192L1.36401 5.43196L1.36575 5.4321L1.37209 5.43262C1.37758 5.43309 1.38558 5.4338 1.39599 5.43478C1.41681 5.43674 1.44728 5.43981 1.48665 5.44428C1.56538 5.45322 1.67973 5.46779 1.82363 5.49041C2.11136 5.53563 2.51764 5.6131 2.99386 5.74226C3.94526 6.00029 5.18116 6.4661 6.30851 7.29786C6.78856 7.65078 7.24886 8.03028 7.6873 8.4346C7.85205 8.29909 8.02796 8.15172 8.21436 7.99556C9.80412 6.66369 12.1566 4.69285 14.8546 3.99041L13.9167 0.674622C13.9039 0.629392 13.915 0.580694 13.946 0.54564ZM1.35301 5.56849L1.36333 5.43191C1.32056 5.42864 1.27867 5.446 1.25056 5.47873C1.22245 5.51146 1.21135 5.55579 1.2206 5.5981L1.35301 5.56849ZM1.53069 5.72544C1.55237 5.81015 1.58207 5.92128 1.62025 6.0538C1.71294 6.37552 1.85547 6.82272 2.0546 7.32378C2.45406 8.32893 3.07617 9.53769 3.97026 10.3899C3.99741 10.4158 4.01279 10.4518 4.0128 10.4895C4.0128 10.5272 3.99742 10.5633 3.97027 10.5891C3.07618 11.4416 2.45407 12.6506 2.05461 13.6558C1.85547 14.1569 1.71294 14.6041 1.62025 14.9258C1.58207 15.0584 1.55237 15.1695 1.53069 15.2542C1.59825 15.2457 1.68272 15.2341 1.78192 15.2185C2.06165 15.1746 2.45821 15.099 2.92352 14.9728C3.85514 14.7201 5.05699 14.2659 6.14863 13.4605L6.14883 13.4603C6.6477 13.0936 7.12471 12.6975 7.57738 12.2741C7.62685 12.2278 7.70249 12.2253 7.75489 12.2681C7.94334 12.4223 8.14598 12.5922 8.36182 12.7731C9.98464 14.1333 12.3542 16.1194 15.0554 16.7778C15.0913 16.7865 15.1221 16.8097 15.1407 16.842C15.1593 16.8742 15.1641 16.9127 15.1539 16.9486L14.2376 20.1879C16.5349 19.7187 18.8047 18.043 19.7428 17.2819C19.7653 17.2637 19.7929 17.2531 19.8217 17.2518C23.7367 17.076 26.4123 15.7196 28.1074 14.2395C28.9557 13.4988 29.5588 12.7267 29.9491 12.0553C30.3423 11.3788 30.5114 10.8185 30.5114 10.5C30.5114 10.1976 30.3428 9.6453 29.9495 8.9709C29.5595 8.30209 28.9569 7.52803 28.11 6.78349C26.4176 5.29573 23.7481 3.92463 19.8455 3.74939C19.8168 3.7481 19.7892 3.73761 19.7668 3.71944C18.8444 2.97306 16.5551 1.28432 14.2376 0.812002L15.1539 4.05141C15.1641 4.0873 15.1593 4.12583 15.1407 4.15807C15.1221 4.19031 15.0912 4.21348 15.0553 4.22222C12.3668 4.87609 10.0146 6.84488 8.39239 8.20273C8.16983 8.38902 7.96101 8.5638 7.76695 8.72212C7.71453 8.76488 7.63899 8.76229 7.58956 8.71603C7.13307 8.28882 6.65198 7.88922 6.14882 7.51932L6.14863 7.51918C5.05699 6.71374 3.85514 6.25953 2.92352 6.00686C2.45821 5.88066 2.06165 5.80509 1.78192 5.76112C1.68272 5.74553 1.59826 5.73392 1.53069 5.72544ZM1.35301 15.4112L1.2206 15.3816C1.21135 15.4239 1.22245 15.4682 1.25056 15.5009C1.27867 15.5337 1.32056 15.551 1.36333 15.5478L1.35301 15.4112Z" fill="#01618A"/>
<path d="M25.7647 10.5C26.289 10.5 26.714 10.0707 26.714 9.5411C26.714 9.01151 26.289 8.58219 25.7647 8.58219C25.2404 8.58219 24.8153 9.01151 24.8153 9.5411C24.8153 10.0707 25.2404 10.5 25.7647 10.5Z" fill="#01618A"/>
<path fill-rule="evenodd" clip-rule="evenodd" d="M23.5267 4.21686C23.5917 4.25458 23.614 4.33831 23.5767 4.4039C22.5226 6.25568 21.9673 8.35877 21.9673 10.5C21.9673 12.6412 22.5226 14.7443 23.5767 16.5961C23.614 16.6617 23.5917 16.7454 23.5267 16.7831C23.4618 16.8208 23.3789 16.7983 23.3416 16.7327C22.2637 14.8392 21.6961 12.689 21.6961 10.5C21.6961 8.31096 22.2637 6.16077 23.3416 4.26734C23.3789 4.20175 23.4618 4.17915 23.5267 4.21686Z" fill="#01618A"/>
<path d="M14.0697 0.501918L14.1117 0.255483L14.1117 0.255483L14.0697 0.501918ZM13.946 0.54564L13.7589 0.379859V0.379859L13.946 0.54564ZM19.9018 3.47772L19.745 3.67247C19.7863 3.70569 19.837 3.72494 19.89 3.72744L19.9018 3.47772ZM28.2881 6.57683L28.123 6.76459L28.2881 6.57683ZM30.1832 8.83185L30.3992 8.7059V8.7059L30.1832 8.83185ZM30.183 12.194L30.3991 12.3196L30.183 12.194ZM28.2848 14.4467L28.4492 14.6351V14.6351L28.2848 14.4467ZM19.8781 17.5235L19.8663 17.2738C19.8132 17.2763 19.7624 17.2956 19.7211 17.329L19.8781 17.5235ZM14.0697 20.4981L14.0276 20.2516H14.0276L14.0697 20.4981ZM13.946 20.4544L14.1331 20.2886L14.1331 20.2886L13.946 20.4544ZM13.9167 20.3254L14.1572 20.3934L14.1572 20.3934L13.9167 20.3254ZM14.8546 17.0095L15.0952 17.0776C15.1135 17.0129 15.105 16.9436 15.0716 16.8853C15.0382 16.827 14.9827 16.7846 14.9177 16.7676L14.8546 17.0095ZM8.18431 12.9807L8.34499 12.7891L8.18431 12.9807ZM7.67496 12.5556L7.83401 12.3627C7.73764 12.2833 7.59738 12.2871 7.50552 12.3718L7.67496 12.5556ZM6.30863 13.6817L6.16056 13.4803L6.1602 13.4805L6.30863 13.6817ZM2.99386 15.2374L2.92842 14.9961H2.92842L2.99386 15.2374ZM1.82363 15.4892L1.86245 15.7362H1.86245L1.82363 15.4892ZM1.48665 15.5354L1.45844 15.287L1.45843 15.287L1.48665 15.5354ZM1.39599 15.5449L1.37254 15.296L1.37253 15.296L1.39599 15.5449ZM1.37209 15.547L1.39278 15.7962L1.39333 15.7961L1.37209 15.547ZM1.36575 15.5476L1.38565 15.7968L1.38643 15.7967L1.36575 15.5476ZM1.36401 15.5477L1.38349 15.7969L1.38391 15.7969L1.36401 15.5477ZM1.3635 15.5477L1.38266 15.797L1.38298 15.797L1.3635 15.5477ZM1.36333 15.5478L1.38237 15.797L1.3825 15.797L1.36333 15.5478ZM1.35301 15.4112L1.6023 15.3923C1.59401 15.2826 1.51495 15.1912 1.40757 15.1672L1.35301 15.4112ZM1.2206 15.3816L0.976427 15.3279L0.976357 15.3282L1.2206 15.3816ZM1.22075 15.3808L0.976656 15.3268L0.976584 15.3272L1.22075 15.3808ZM1.22119 15.3789L0.977237 15.3242L0.97709 15.3249L1.22119 15.3789ZM1.22283 15.3715L0.978967 15.3165L0.97888 15.3169L1.22283 15.3715ZM1.22925 15.3436L1.47271 15.4005L1.47271 15.4004L1.22925 15.3436ZM1.2549 15.2378L1.49745 15.2983H1.49745L1.2549 15.2378ZM1.35981 14.8493L1.11958 14.7801L1.35981 14.8493ZM1.80289 13.5537L1.57056 13.4614L1.80289 13.5537ZM3.68227 10.4895L3.8594 10.666C3.95657 10.5684 3.95656 10.4106 3.85937 10.3131L3.68227 10.4895ZM1.80289 7.42584L1.57056 7.51817L1.80289 7.42584ZM1.35981 6.13036L1.60004 6.06115H1.60004L1.35981 6.13036ZM1.2549 5.74191L1.01236 5.8025H1.01236L1.2549 5.74191ZM1.22925 5.63602L0.985791 5.69284L0.985791 5.69284L1.22925 5.63602ZM1.22283 5.60811L0.978881 5.66278L0.978967 5.66316L1.22283 5.60811ZM1.22119 5.60078L0.97709 5.65478L0.977239 5.65545L1.22119 5.60078ZM1.22075 5.59882L0.97659 5.65252L0.976656 5.65282L1.22075 5.59882ZM1.22063 5.59827L0.976411 5.65171L0.976469 5.65197L1.22063 5.59827ZM1.35301 5.56849L1.40757 5.81247C1.51495 5.78846 1.59401 5.69706 1.6023 5.58734L1.35301 5.56849ZM1.36333 5.43191L1.3825 5.18264L1.38244 5.18264L1.36333 5.43191ZM1.3635 5.43192L1.38298 5.18268L1.38266 5.18265L1.3635 5.43192ZM1.36401 5.43196L1.38391 5.18275L1.38349 5.18272L1.36401 5.43196ZM1.36575 5.4321L1.38645 5.18295L1.38565 5.18289L1.36575 5.4321ZM1.37209 5.43262L1.39328 5.18352L1.3928 5.18348L1.37209 5.43262ZM1.39599 5.43478L1.41945 5.18588L1.41944 5.18588L1.39599 5.43478ZM1.48665 5.44428L1.45843 5.69268H1.45844L1.48665 5.44428ZM1.82363 5.49041L1.78481 5.73738H1.78481L1.82363 5.49041ZM2.99386 5.74226L3.0593 5.50097V5.50097L2.99386 5.74226ZM6.30851 7.29786L6.16008 7.49903L6.16043 7.49928L6.30851 7.29786ZM7.6873 8.4346L7.51782 8.61839C7.60958 8.70301 7.74971 8.70698 7.84611 8.62768L7.6873 8.4346ZM8.21436 7.99556L8.3749 8.1872H8.3749L8.21436 7.99556ZM14.8546 3.99041L14.9176 4.23234C14.9826 4.21541 15.0381 4.173 15.0715 4.11468C15.1049 4.05635 15.1135 3.98704 15.0952 3.92236L14.8546 3.99041ZM13.9167 0.674622L14.1572 0.606575V0.606575L13.9167 0.674622ZM1.25056 5.47873L1.0609 5.31585L1.0609 5.31586L1.25056 5.47873ZM1.62025 6.0538L1.38002 6.12302H1.38002L1.62025 6.0538ZM1.53069 5.72544L1.56183 5.47738C1.47974 5.46708 1.39787 5.49805 1.34316 5.56012C1.28845 5.62218 1.26798 5.70728 1.2885 5.78743L1.53069 5.72544ZM2.0546 7.32378L1.82228 7.41611L2.0546 7.32378ZM3.97026 10.3899L3.79777 10.5709H3.79777L3.97026 10.3899ZM3.97027 10.5891L4.14279 10.7701H4.14279L3.97027 10.5891ZM2.05461 13.6558L2.28693 13.7481L2.05461 13.6558ZM1.62025 14.9258L1.38002 14.8566H1.38002L1.62025 14.9258ZM1.53069 15.2542L1.2885 15.1922C1.26798 15.2724 1.28845 15.3575 1.34316 15.4195C1.39787 15.4816 1.47974 15.5126 1.56183 15.5023L1.53069 15.2542ZM1.78192 15.2185L1.74311 14.9716L1.7431 14.9716L1.78192 15.2185ZM2.92352 14.9728L2.85808 14.7315L2.85808 14.7315L2.92352 14.9728ZM6.14863 13.4605L6.29706 13.6616L6.29714 13.6616L6.14863 13.4605ZM6.14883 13.4603L6.00077 13.2589L6.00032 13.2592L6.14883 13.4603ZM7.57738 12.2741L7.40659 12.0915L7.57738 12.2741ZM7.75489 12.2681L7.91319 12.0746H7.91319L7.75489 12.2681ZM8.36182 12.7731L8.52242 12.5815L8.36182 12.7731ZM15.0554 16.7778L15.1146 16.5349H15.1146L15.0554 16.7778ZM15.1407 16.842L15.3572 16.717L15.3572 16.717L15.1407 16.842ZM15.1539 16.9486L15.3945 17.0166H15.3945L15.1539 16.9486ZM14.2376 20.1879L13.9971 20.1199C13.9733 20.2038 13.9951 20.2941 14.0544 20.358C14.1138 20.422 14.2022 20.4503 14.2877 20.4329L14.2376 20.1879ZM19.7428 17.2819L19.5853 17.0878L19.5853 17.0878L19.7428 17.2819ZM19.8217 17.2518L19.8105 17.0021H19.8105L19.8217 17.2518ZM28.1074 14.2395L27.9429 14.0512L28.1074 14.2395ZM29.9491 12.0553L29.7329 11.9297L29.9491 12.0553ZM29.9495 8.9709L30.1655 8.84496L29.9495 8.9709ZM28.11 6.78349L28.2751 6.59573L28.11 6.78349ZM19.8455 3.74939L19.8343 3.99914H19.8343L19.8455 3.74939ZM19.7668 3.71944L19.924 3.52511L19.924 3.5251L19.7668 3.71944ZM14.2376 0.812002L14.2876 0.567037C14.2021 0.549618 14.1137 0.578006 14.0544 0.641941C13.995 0.705877 13.9733 0.796115 13.9971 0.880048L14.2376 0.812002ZM15.1539 4.05141L14.9134 4.11946L14.9134 4.11946L15.1539 4.05141ZM15.1407 4.15807L14.9242 4.03304V4.03304L15.1407 4.15807ZM15.0553 4.22222L15.1144 4.46514L15.1144 4.46514L15.0553 4.22222ZM8.39239 8.20273L8.55285 8.39444L8.39239 8.20273ZM7.76695 8.72212L7.60892 8.5284L7.60892 8.5284L7.76695 8.72212ZM7.58956 8.71603L7.41874 8.89857L7.58956 8.71603ZM6.14882 7.51932L6.00052 7.72058L6.00074 7.72075L6.14882 7.51932ZM6.14863 7.51918L6.00021 7.72035L6.00033 7.72044L6.14863 7.51918ZM2.92352 6.00686L2.85808 6.24814L2.92352 6.00686ZM1.78192 5.76112L1.74311 6.00809H1.74311L1.78192 5.76112ZM23.5767 4.4039L23.794 4.52758L23.5767 4.4039ZM23.5267 4.21686L23.6523 4.00068V4.00068L23.5267 4.21686ZM23.5767 16.5961L23.794 16.4724V16.4724L23.5767 16.5961ZM23.5267 16.7831L23.4012 16.567H23.4012L23.5267 16.7831ZM23.3416 16.7327L23.5588 16.609H23.5588L23.3416 16.7327ZM23.3416 4.26734L23.5588 4.39101V4.39101L23.3416 4.26734ZM14.1117 0.255483C13.9801 0.233004 13.8469 0.280528 13.7589 0.379859L14.1331 0.711422C14.1072 0.740645 14.0674 0.755154 14.0276 0.748353L14.1117 0.255483ZM20.0585 3.28298C19.0809 2.49605 16.6156 0.68294 14.1117 0.255483L14.0276 0.748353C16.3932 1.1522 18.7708 2.88826 19.745 3.67247L20.0585 3.28298ZM28.4531 6.38907C26.6782 4.82872 23.9098 3.417 19.9136 3.228L19.89 3.72744C23.7729 3.91108 26.4332 5.27908 28.123 6.76459L28.4531 6.38907ZM30.3992 8.7059C29.9805 7.98793 29.3418 7.17029 28.4531 6.38907L28.123 6.76459C28.9717 7.51068 29.5759 8.28668 29.9673 8.95779L30.3992 8.7059ZM31.0326 10.5C31.0326 10.0582 30.8088 9.40823 30.3992 8.7059L29.9673 8.95779C30.3613 9.63338 30.5326 10.1905 30.5326 10.5H31.0326ZM30.3991 12.3196C30.8102 11.6123 31.0326 10.9555 31.0326 10.5H30.5326C30.5326 10.8254 30.3608 11.3905 29.9668 12.0684L30.3991 12.3196ZM28.4492 14.6351C29.3397 13.8575 29.9796 13.0413 30.3991 12.3196L29.9668 12.0684C29.5752 12.7422 28.9704 13.5162 28.1203 14.2584L28.4492 14.6351ZM19.8899 17.7732C23.8964 17.5838 26.6706 16.1881 28.4492 14.6351L28.1203 14.2584C26.4278 15.7364 23.7615 17.0896 19.8663 17.2738L19.8899 17.7732ZM14.1118 20.7445C16.5965 20.32 19.0424 18.5193 20.0351 17.718L19.7211 17.329C18.7317 18.1275 16.3737 19.8508 14.0276 20.2516L14.1118 20.7445ZM13.7589 20.6202C13.8469 20.7195 13.9801 20.767 14.1118 20.7445L14.0276 20.2516C14.0674 20.2448 14.1072 20.2593 14.1331 20.2886L13.7589 20.6202ZM13.6761 20.2573C13.6402 20.3842 13.6711 20.5211 13.7589 20.6202L14.1331 20.2886C14.1588 20.3176 14.1675 20.3571 14.1572 20.3934L13.6761 20.2573ZM14.6141 16.9415L13.6761 20.2573L14.1572 20.3934L15.0952 17.0776L14.6141 16.9415ZM8.02364 13.1722C9.60636 14.4999 12.0174 16.5277 14.7915 17.2514L14.9177 16.7676C12.2703 16.077 9.94296 14.1297 8.34499 12.7891L8.02364 13.1722ZM7.5159 12.7485C7.67432 12.8791 7.84348 13.021 8.02364 13.1722L8.34499 12.7891C8.16521 12.6383 7.99437 12.495 7.83401 12.3627L7.5159 12.7485ZM6.4567 13.8831C6.93982 13.528 7.40309 13.1462 7.84439 12.7394L7.50552 12.3718C7.07779 12.766 6.62878 13.1361 6.16056 13.4803L6.4567 13.8831ZM3.0593 15.4787C4.02919 15.2156 5.2967 14.739 6.45706 13.8829L6.1602 13.4805C5.06579 14.288 3.86139 14.7431 2.92842 14.9961L3.0593 15.4787ZM1.86245 15.7362C2.15762 15.6898 2.57294 15.6106 3.0593 15.4787L2.92842 14.9961C2.46234 15.1225 2.0651 15.1982 1.78481 15.2423L1.86245 15.7362ZM1.51486 15.7838C1.59687 15.7745 1.71476 15.7594 1.86245 15.7362L1.78481 15.2423C1.6447 15.2643 1.5339 15.2784 1.45844 15.287L1.51486 15.7838ZM1.41944 15.7938C1.4418 15.7917 1.47386 15.7884 1.51487 15.7838L1.45843 15.287C1.4207 15.2913 1.39182 15.2942 1.37254 15.296L1.41944 15.7938ZM1.39333 15.7961C1.39953 15.7956 1.40827 15.7948 1.41945 15.7938L1.37253 15.296C1.36289 15.2969 1.35563 15.2975 1.35085 15.2979L1.39333 15.7961ZM1.38643 15.7967L1.39278 15.7962L1.35141 15.2979L1.34506 15.2984L1.38643 15.7967ZM1.38391 15.7969L1.38565 15.7968L1.34584 15.2984L1.3441 15.2985L1.38391 15.7969ZM1.38298 15.797L1.38349 15.7969L1.34453 15.2985L1.34402 15.2985L1.38298 15.797ZM1.3825 15.797L1.38266 15.797L1.34433 15.2985L1.34417 15.2985L1.3825 15.797ZM1.10371 15.4298C1.10882 15.4981 1.11141 15.5324 1.11273 15.5497C1.11339 15.5583 1.11374 15.5629 1.11394 15.5654C1.11404 15.5666 1.11413 15.5677 1.11422 15.5688C1.11425 15.5691 1.11436 15.5704 1.11451 15.572C1.11455 15.5724 1.11479 15.5749 1.11516 15.5779C1.11527 15.5788 1.11585 15.5836 1.11688 15.5897C1.1172 15.5916 1.11876 15.6009 1.1219 15.6126C1.12296 15.6166 1.12748 15.6337 1.13704 15.654C1.14598 15.6713 1.16592 15.7011 1.17647 15.7138C1.26912 15.7793 1.38117 15.7971 1.36333 15.5478C1.3455 15.2984 1.45755 15.3162 1.5502 15.3817C1.56075 15.3944 1.58069 15.4242 1.58963 15.4415C1.59919 15.4618 1.60371 15.4789 1.60477 15.4829C1.60791 15.4946 1.60947 15.5039 1.60979 15.5058C1.61082 15.5119 1.6114 15.5167 1.6115 15.5176C1.61188 15.5206 1.61211 15.523 1.61215 15.5235C1.6123 15.525 1.6124 15.5261 1.6124 15.5262C1.61245 15.5267 1.61245 15.5268 1.61238 15.5258C1.61224 15.5241 1.61193 15.5201 1.61128 15.5117C1.60999 15.4948 1.60742 15.4608 1.60231 15.3925L1.10371 15.4298ZM1.2206 15.3816C0.976341 15.3283 0.978709 15.4447 1.03358 15.5475C1.04467 15.5592 1.07109 15.5819 1.08654 15.5926C1.10469 15.6041 1.12029 15.6106 1.12383 15.6121C1.13443 15.6165 1.14304 15.6192 1.14471 15.6198C1.15029 15.6215 1.15473 15.6227 1.15555 15.6229C1.15839 15.6237 1.16064 15.6243 1.16107 15.6244C1.16253 15.6247 1.16372 15.625 1.16405 15.6251C1.16503 15.6253 1.16611 15.6256 1.16724 15.6258C1.16967 15.6264 1.17409 15.6274 1.18241 15.6292C1.19914 15.633 1.23239 15.6404 1.29863 15.6552L1.40739 15.1671C1.3412 15.1524 1.30824 15.145 1.29187 15.1414C1.28365 15.1395 1.27979 15.1386 1.27808 15.1383C1.27715 15.138 1.2772 15.138 1.27766 15.1382C1.27773 15.1382 1.2788 15.1384 1.28019 15.1388C1.28059 15.1389 1.28282 15.1394 1.28565 15.1402C1.28647 15.1404 1.29091 15.1416 1.29648 15.1433C1.29815 15.1439 1.30677 15.1466 1.31736 15.151C1.32091 15.1525 1.33651 15.159 1.35465 15.1705C1.3701 15.1812 1.39653 15.2039 1.40761 15.2156C1.46248 15.3184 1.46485 15.4348 1.2206 15.3816ZM0.97709 15.3249L0.976656 15.3268L1.46485 15.4348L1.46529 15.4329L0.97709 15.3249ZM0.97888 15.3169L0.977238 15.3242L1.46514 15.4335L1.46678 15.4262L0.97888 15.3169ZM0.985792 15.2868C0.982809 15.2996 0.980539 15.3095 0.978967 15.3165L1.4667 15.4266C1.46801 15.4208 1.47 15.412 1.47271 15.4005L0.985792 15.2868ZM1.01236 15.1772C1.00057 15.2243 0.991756 15.2613 0.985791 15.2868L1.47271 15.4004C1.47811 15.3773 1.48632 15.3429 1.49745 15.2983L1.01236 15.1772ZM1.11958 14.7801C1.07136 14.9475 1.03592 15.0829 1.01236 15.1772L1.49745 15.2983C1.51971 15.2092 1.55362 15.0796 1.60004 14.9185L1.11958 14.7801ZM1.57056 13.4614C1.3638 13.9817 1.21594 14.4456 1.11958 14.7801L1.60004 14.9185C1.69291 14.5961 1.83571 14.1481 2.03521 13.6461L1.57056 13.4614ZM3.50514 10.3131C2.58926 11.2327 1.96583 12.4667 1.57056 13.4614L2.03521 13.6461C2.42034 12.6769 3.01332 11.5154 3.8594 10.666L3.50514 10.3131ZM1.57056 7.51817C1.96583 8.51279 2.58927 9.74672 3.50517 10.666L3.85937 10.3131C3.01331 9.46391 2.42034 8.30259 2.03521 7.33351L1.57056 7.51817ZM1.11958 6.19957C1.21594 6.53401 1.36381 6.99792 1.57056 7.51817L2.03521 7.33351C1.83571 6.83151 1.69291 6.3835 1.60004 6.06115L1.11958 6.19957ZM1.01236 5.8025C1.03592 5.89681 1.07136 6.03219 1.11958 6.19957L1.60004 6.06115C1.55362 5.90002 1.51971 5.77042 1.49745 5.68132L1.01236 5.8025ZM0.985791 5.69284C0.991756 5.7184 1.00057 5.75533 1.01236 5.8025L1.49745 5.68132C1.48632 5.63677 1.47811 5.60236 1.47271 5.57921L0.985791 5.69284ZM0.978967 5.66316C0.980539 5.67012 0.982809 5.68006 0.985791 5.69284L1.47271 5.57921C1.47 5.56763 1.46801 5.55887 1.4667 5.55306L0.978967 5.66316ZM0.977239 5.65545L0.978881 5.66278L1.46678 5.55345L1.46514 5.54612L0.977239 5.65545ZM0.976656 5.65282L0.977091 5.65478L1.46529 5.54678L1.46485 5.54482L0.976656 5.65282ZM0.976469 5.65197L0.97659 5.65252L1.46492 5.54512L1.4648 5.54457L0.976469 5.65197ZM0.976375 5.65154L0.976411 5.65171L1.46486 5.54484L1.46482 5.54467L0.976375 5.65154ZM1.29863 5.32448C1.23239 5.33924 1.19914 5.34668 1.18241 5.35043C1.17409 5.3523 1.16967 5.3533 1.16725 5.35385C1.16611 5.35411 1.16503 5.35435 1.16406 5.35458C1.16373 5.35466 1.16255 5.35493 1.16109 5.35529C1.16067 5.35539 1.15843 5.35594 1.1556 5.3567C1.15479 5.35692 1.15037 5.3581 1.14482 5.35986C1.14316 5.36039 1.13459 5.36309 1.12403 5.36751C1.12051 5.36898 1.10497 5.37542 1.08687 5.38688C1.07144 5.39747 1.04503 5.42013 1.03393 5.4318C0.978739 5.53482 0.976403 5.65167 1.2206 5.5981C1.46479 5.54454 1.46245 5.66139 1.40726 5.76441C1.39616 5.77608 1.36975 5.79874 1.35433 5.80933C1.33623 5.82079 1.32068 5.82723 1.31716 5.8287C1.30661 5.83312 1.29803 5.83582 1.29638 5.83634C1.29083 5.83811 1.28641 5.83929 1.2856 5.83951C1.28278 5.84026 1.28056 5.84081 1.28017 5.8409C1.27878 5.84124 1.27772 5.84149 1.27765 5.84151C1.27719 5.84161 1.27715 5.84162 1.27808 5.84141C1.27979 5.84102 1.28365 5.84015 1.29187 5.8383C1.30824 5.83463 1.3412 5.82726 1.40739 5.81251L1.29863 5.32448ZM1.36333 5.43191C1.38244 5.18264 1.26995 5.2 1.17681 5.26544C1.16619 5.27817 1.14612 5.30815 1.13712 5.32547C1.12752 5.34588 1.12298 5.36302 1.12191 5.36698C1.11876 5.37868 1.1172 5.38808 1.11689 5.38991C1.11585 5.396 1.11527 5.40082 1.11516 5.40171C1.11479 5.40479 1.11455 5.40723 1.11451 5.40769C1.11436 5.40927 1.11425 5.41055 1.11422 5.4109C1.11413 5.41194 1.11404 5.41309 1.11394 5.41426C1.11374 5.41678 1.11339 5.42136 1.11273 5.42995C1.11141 5.44721 1.10882 5.48151 1.10371 5.54984L1.60231 5.58715C1.60742 5.51888 1.60999 5.48488 1.61128 5.468C1.61193 5.45952 1.61224 5.45556 1.61238 5.45381C1.61245 5.45286 1.61245 5.45293 1.6124 5.45344C1.6124 5.45353 1.6123 5.45468 1.61215 5.45619C1.61211 5.45661 1.61188 5.45903 1.6115 5.46211C1.6114 5.463 1.61082 5.46781 1.60978 5.4739C1.60947 5.47573 1.6079 5.48513 1.60476 5.49684C1.60369 5.50079 1.59915 5.51793 1.58955 5.53834C1.58055 5.55566 1.56048 5.58564 1.54986 5.59837C1.45672 5.66381 1.34423 5.68117 1.36333 5.43191ZM1.38266 5.18265L1.3825 5.18264L1.34417 5.68117L1.34433 5.68118L1.38266 5.18265ZM1.38349 5.18272L1.38298 5.18268L1.34402 5.68116L1.34453 5.6812L1.38349 5.18272ZM1.38565 5.18289L1.38391 5.18275L1.3441 5.68116L1.34584 5.6813L1.38565 5.18289ZM1.3928 5.18348L1.38645 5.18296L1.34504 5.68124L1.35139 5.68177L1.3928 5.18348ZM1.41944 5.18588C1.40828 5.18483 1.39953 5.18406 1.39328 5.18352L1.3509 5.68172C1.35563 5.68213 1.36288 5.68277 1.37254 5.68368L1.41944 5.18588ZM1.51487 5.19588C1.47386 5.19122 1.4418 5.18799 1.41945 5.18588L1.37253 5.68367C1.39182 5.68549 1.42071 5.6884 1.45843 5.69268L1.51487 5.19588ZM1.86245 5.24344C1.71476 5.22023 1.59687 5.20519 1.51487 5.19588L1.45844 5.69268C1.5339 5.70125 1.6447 5.71535 1.78481 5.73738L1.86245 5.24344ZM3.0593 5.50097C2.57294 5.36906 2.15762 5.28983 1.86245 5.24344L1.78481 5.73738C2.0651 5.78143 2.46234 5.85713 2.92842 5.98354L3.0593 5.50097ZM6.45693 7.09668C5.29661 6.2406 4.02916 5.76402 3.0593 5.50097L2.92842 5.98354C3.86136 6.23657 5.06571 6.6916 6.16008 7.49903L6.45693 7.09668ZM7.85678 8.25082C7.41155 7.84023 6.94411 7.45484 6.45659 7.09643L6.16043 7.49928C6.63302 7.84672 7.08618 8.22032 7.51782 8.61839L7.85678 8.25082ZM8.05381 7.80393C7.86721 7.96025 7.6922 8.10686 7.52849 8.24153L7.84611 8.62768C8.0119 8.49131 8.18871 8.34318 8.3749 8.1872L8.05381 7.80393ZM14.7916 3.74847C12.0302 4.46741 9.63598 6.47841 8.05381 7.80393L8.3749 8.1872C9.97226 6.84897 12.2829 4.91829 14.9176 4.23234L14.7916 3.74847ZM13.6761 0.742668L14.614 4.05846L15.0952 3.92236L14.1572 0.606575L13.6761 0.742668ZM13.7589 0.379859C13.6711 0.478951 13.6402 0.615851 13.6761 0.742668L14.1572 0.606575C14.1675 0.642932 14.1588 0.682438 14.1331 0.711422L13.7589 0.379859ZM1.6023 5.58734L1.61262 5.45075L1.11405 5.41306L1.10372 5.54965L1.6023 5.58734ZM1.38236 5.18263C1.25991 5.17328 1.14065 5.223 1.0609 5.31585L1.44022 5.64161C1.4167 5.669 1.38121 5.684 1.34431 5.68118L1.38236 5.18263ZM1.0609 5.31586C0.981327 5.40852 0.950486 5.53303 0.976357 5.65146L1.46484 5.54475C1.47222 5.57856 1.46358 5.61441 1.44022 5.64161L1.0609 5.31586ZM1.27515 5.84208L1.40757 5.81247L1.29846 5.32452L1.16604 5.35413L1.27515 5.84208ZM1.86048 5.98459C1.82304 5.85465 1.794 5.74593 1.77288 5.66344L1.2885 5.78743C1.31075 5.87436 1.3411 5.98791 1.38002 6.12302L1.86048 5.98459ZM2.28693 7.23145C2.09143 6.73951 1.95143 6.30027 1.86048 5.98459L1.38002 6.12302C1.47445 6.45078 1.61952 6.90592 1.82228 7.41611L2.28693 7.23145ZM4.14274 10.2089C3.2872 9.39346 2.68136 8.22394 2.28693 7.23145L1.82228 7.41611C2.22677 8.43392 2.86514 9.68192 3.79777 10.5709L4.14274 10.2089ZM4.2628 10.4895C4.26279 10.3838 4.21968 10.2823 4.14274 10.2089L3.79777 10.5709C3.77513 10.5493 3.7628 10.5198 3.7628 10.4895L4.2628 10.4895ZM4.14279 10.7701C4.21972 10.6967 4.26281 10.5952 4.2628 10.4895L3.7628 10.4895C3.7628 10.4593 3.77512 10.4298 3.79775 10.4082L4.14279 10.7701ZM2.28693 13.7481C2.68136 12.7556 3.28722 11.5859 4.14279 10.7701L3.79775 10.4082C2.86513 11.2974 2.22677 12.5456 1.82228 13.5635L2.28693 13.7481ZM1.86048 14.9951C1.95143 14.6794 2.09143 14.2401 2.28693 13.7481L1.82228 13.5635C1.61952 14.0737 1.47445 14.5289 1.38002 14.8566L1.86048 14.9951ZM1.77288 15.3162C1.794 15.2337 1.82304 15.125 1.86048 14.9951L1.38002 14.8566C1.34109 14.9917 1.31075 15.1053 1.2885 15.1922L1.77288 15.3162ZM1.7431 14.9716C1.64659 14.9867 1.5647 14.998 1.49955 15.0062L1.56183 15.5023C1.63181 15.4935 1.71884 15.4815 1.82074 15.4655L1.7431 14.9716ZM2.85808 14.7315C2.40291 14.855 2.01539 14.9288 1.74311 14.9716L1.82074 15.4655C2.10791 15.4204 2.51351 15.343 2.98896 15.2141L2.85808 14.7315ZM6.00021 13.2593C4.94154 14.0404 3.77124 14.4839 2.85808 14.7315L2.98896 15.2141C3.93904 14.9564 5.17245 14.4914 6.29706 13.6616L6.00021 13.2593ZM6.00032 13.2592L6.00013 13.2594L6.29714 13.6616L6.29734 13.6614L6.00032 13.2592ZM7.40659 12.0915C6.96111 12.5082 6.49169 12.8981 6.00077 13.2589L6.2969 13.6618C6.80371 13.2892 7.28831 12.8868 7.74816 12.4567L7.40659 12.0915ZM7.91319 12.0746C7.76374 11.9524 7.54744 11.9598 7.40659 12.0915L7.74816 12.4567C7.70627 12.4958 7.64123 12.4982 7.59659 12.4616L7.91319 12.0746ZM8.52242 12.5815C8.30685 12.4008 8.10301 12.2299 7.91319 12.0746L7.59659 12.4616C7.78367 12.6147 7.98511 12.7835 8.20123 12.9647L8.52242 12.5815ZM15.1146 16.5349C12.4796 15.8926 10.1536 13.9487 8.52242 12.5815L8.20123 12.9647C9.81564 14.3178 12.2288 16.3461 14.9962 17.0207L15.1146 16.5349ZM15.3572 16.717C15.3047 16.6261 15.2173 16.56 15.1146 16.5349L14.9961 17.0207C14.9652 17.0131 14.9394 16.9934 14.9242 16.9669L15.3572 16.717ZM15.3945 17.0166C15.423 16.9159 15.4096 16.8078 15.3572 16.717L14.9242 16.9669C14.909 16.9406 14.9052 16.9095 14.9134 16.8805L15.3945 17.0166ZM14.4782 20.256L15.3945 17.0166L14.9134 16.8805L13.9971 20.1199L14.4782 20.256ZM19.5853 17.0878C18.6497 17.8469 16.4206 19.4869 14.1876 19.943L14.2877 20.4329C16.6492 19.9505 18.9597 18.2392 19.9003 17.476L19.5853 17.0878ZM19.8105 17.0021C19.728 17.0058 19.6492 17.036 19.5853 17.0878L19.9003 17.476C19.8814 17.4914 19.8578 17.5005 19.833 17.5016L19.8105 17.0021ZM27.9429 14.0512C26.291 15.4936 23.6697 16.8287 19.8105 17.0021L19.833 17.5016C23.8038 17.3232 26.5335 15.9456 28.2718 14.4278L27.9429 14.0512ZM29.7329 11.9297C29.3566 12.5772 28.771 13.3281 27.9429 14.0512L28.2718 14.4278C29.1403 13.6694 29.761 12.8763 30.1652 12.1809L29.7329 11.9297ZM30.2614 10.5C30.2614 10.7534 30.1176 11.2678 29.7329 11.9297L30.1652 12.1809C30.567 11.4897 30.7614 10.8835 30.7614 10.5H30.2614ZM29.7336 9.09684C30.1191 9.7579 30.2614 10.2637 30.2614 10.5H30.7614C30.7614 10.1314 30.5666 9.53269 30.1655 8.84496L29.7336 9.09684ZM27.945 6.97126C28.7719 7.69823 29.3572 8.45147 29.7336 9.09684L30.1655 8.84496C29.7618 8.15272 29.142 7.35784 28.2751 6.59573L27.945 6.97126ZM19.8343 3.99914C23.68 4.17182 26.2953 5.52106 27.945 6.97126L28.2751 6.59573C26.54 5.0704 23.8161 3.67743 19.8567 3.49964L19.8343 3.99914ZM19.6095 3.91378C19.6733 3.9654 19.752 3.99544 19.8343 3.99914L19.8568 3.49964C19.8816 3.50075 19.9051 3.50982 19.924 3.52511L19.6095 3.91378ZM14.1877 1.05697C16.441 1.51621 18.6897 3.16945 19.6095 3.91378L19.924 3.5251C18.9991 2.77667 16.6692 1.05242 14.2876 0.567037L14.1877 1.05697ZM15.3945 3.98336L14.4782 0.743955L13.9971 0.880048L14.9134 4.11946L15.3945 3.98336ZM15.3572 4.2831C15.4096 4.19228 15.423 4.0841 15.3945 3.98336L14.9134 4.11946C14.9052 4.09051 14.909 4.05937 14.9242 4.03304L15.3572 4.2831ZM15.1144 4.46514C15.2172 4.44013 15.3047 4.37403 15.3572 4.2831L14.9242 4.03304C14.9395 4.0066 14.9652 3.98683 14.9962 3.9793L15.1144 4.46514ZM8.55285 8.39444C10.1834 7.02959 12.4919 5.10293 15.1144 4.46514L14.9962 3.9793C12.2416 4.64925 9.8458 6.66017 8.23192 8.01103L8.55285 8.39444ZM7.92498 8.91583C8.1205 8.75633 8.33059 8.58048 8.55285 8.39444L8.23192 8.01103C8.00907 8.19756 7.80152 8.37127 7.60892 8.5284L7.92498 8.91583ZM7.41874 8.89857C7.55943 9.03024 7.77549 9.03778 7.92498 8.91583L7.60892 8.5284C7.65357 8.49197 7.71854 8.49433 7.76039 8.5335L7.41874 8.89857ZM6.00074 7.72075C6.49594 8.0848 6.96943 8.47809 7.41874 8.89857L7.76039 8.5335C7.2967 8.09955 6.80802 7.69364 6.2969 7.31789L6.00074 7.72075ZM6.00033 7.72044L6.00052 7.72058L6.29712 7.31806L6.29694 7.31792L6.00033 7.72044ZM2.85808 6.24814C3.77124 6.49581 4.94154 6.93923 6.00021 7.72035L6.29706 7.31801C5.17245 6.48824 3.93904 6.02325 2.98896 5.76557L2.85808 6.24814ZM1.74311 6.00809C2.01539 6.05089 2.40291 6.12469 2.85808 6.24814L2.98896 5.76557C2.51351 5.63662 2.10791 5.55929 1.82074 5.51415L1.74311 6.00809ZM1.49955 5.97349C1.56469 5.98167 1.64659 5.99292 1.74311 6.00809L1.82074 5.51415C1.71884 5.49814 1.63182 5.48617 1.56183 5.47738L1.49955 5.97349ZM1.40757 15.1672L1.27515 15.1376L1.16604 15.6255L1.29846 15.6551L1.40757 15.1672ZM0.976357 15.3282C0.950486 15.4466 0.981326 15.5711 1.0609 15.6638L1.44022 15.338C1.46358 15.3652 1.47222 15.4011 1.46484 15.4349L0.976357 15.3282ZM1.0609 15.6638C1.14064 15.7567 1.25991 15.8064 1.38237 15.797L1.3443 15.2985C1.38121 15.2957 1.4167 15.3107 1.44022 15.338L1.0609 15.6638ZM1.61262 15.5289L1.6023 15.3923L1.10372 15.43L1.11405 15.5666L1.61262 15.5289ZM0.976584 15.3272L0.976427 15.3279L1.46477 15.4352L1.46492 15.4345L0.976584 15.3272ZM26.464 9.5411C26.464 9.93498 26.1486 10.25 25.7647 10.25V10.75C26.4294 10.75 26.964 10.2064 26.964 9.5411H26.464ZM25.7647 10.25C25.3808 10.25 25.0653 9.93498 25.0653 9.5411H24.5653C24.5653 10.2064 25.0999 10.75 25.7647 10.75V10.25ZM25.0653 9.5411C25.0653 9.14721 25.3808 8.83219 25.7647 8.83219V8.33219C25.0999 8.33219 24.5653 8.8758 24.5653 9.5411H25.0653ZM25.7647 8.83219C26.1486 8.83219 26.464 9.14721 26.464 9.5411H26.964C26.964 8.8758 26.4294 8.33219 25.7647 8.33219V8.83219ZM23.794 4.52758C23.8986 4.34375 23.8369 4.1079 23.6523 4.00068L23.4012 4.43305C23.3464 4.40125 23.3295 4.33288 23.3594 4.28022L23.794 4.52758ZM22.2173 10.5C22.2173 8.40192 22.7614 6.34148 23.794 4.52758L23.3594 4.28022C22.2837 6.16988 21.7173 8.31563 21.7173 10.5H22.2173ZM23.794 16.4724C22.7614 14.6585 22.2173 12.5981 22.2173 10.5H21.7173C21.7173 12.6844 22.2837 14.8301 23.3594 16.7198L23.794 16.4724ZM23.6523 16.9993C23.8369 16.8921 23.8986 16.6562 23.794 16.4724L23.3594 16.7198C23.3295 16.6671 23.3464 16.5987 23.4012 16.567L23.6523 16.9993ZM23.1243 16.8563C23.2298 17.0416 23.4662 17.1074 23.6523 16.9993L23.4012 16.567C23.4574 16.5343 23.528 16.5549 23.5588 16.609L23.1243 16.8563ZM21.4461 10.5C21.4461 12.7322 22.0249 14.925 23.1243 16.8563L23.5588 16.609C22.5025 14.7534 21.9461 12.6459 21.9461 10.5H21.4461ZM23.1243 4.14366C22.0249 6.07497 21.4461 8.26782 21.4461 10.5H21.9461C21.9461 8.35411 22.5025 6.24656 23.5588 4.39101L23.1243 4.14366ZM23.6523 4.00068C23.4662 3.8926 23.2298 3.95839 23.1243 4.14366L23.5588 4.39101C23.528 4.44511 23.4574 4.46571 23.4012 4.43305L23.6523 4.00068Z" fill="#01618A"/>
</svg>
